<svg width="180" height="180" viewBox="0 0 180 180" fill="none" xmlns="http://www.w3.org/2000/svg">
<path d="M84.8706 111.83C83.043 113.619 81.3145 115.582 80.8013 117.91C80.1998 120.639 81.4047 122.872 82.8521 124.668C82.9149 124.746 82.9813 124.821 83.051 124.893L88.1901 130.181C88.202 130.193 88.2139 130.205 88.226 130.217C93.1715 135.149 100.767 135.801 106.414 132.18L117.736 142.816C119.011 144.014 121.008 143.983 122.245 142.746L151.405 113.586C152.018 112.973 152.36 112.14 152.354 111.273C152.348 110.406 151.995 109.577 151.373 108.973L137.632 95.6027C137.913 93.8577 138.025 92.1287 137.699 90.378C137.247 87.9463 136.033 85.8533 134.157 83.6691C134.094 83.5958 134.028 83.5254 133.959 83.458L106.447 56.6799C103.59 53.8985 99.0274 53.9293 96.2077 56.7491L95.643 57.3137L97.934 59.6048L95.643 57.3138C94.4119 58.5449 93.7095 60.1131 93.5453 61.7289C90.8323 59.9095 87.1639 60.1015 84.6466 62.3391L83.3868 63.459C81.5828 65.0625 80.7711 67.347 80.9691 69.5621C78.7898 69.271 76.5095 69.9672 74.8438 71.6329L73.9518 72.5249C72.2831 74.1936 71.5925 76.4699 71.8799 78.6416C69.6825 78.3986 67.3996 79.1536 65.7645 80.8909L64.8423 81.8708L67.2016 84.0914L64.8423 81.8708C62.1134 84.7702 62.2157 89.3228 65.072 92.0968L85.1334 111.579C85.0441 111.661 84.9565 111.744 84.8706 111.83Z" fill="#63E6E2" stroke="black" stroke-width="6.48" stroke-linecap="round" stroke-linejoin="round"/>
<path d="M24.1 135.616L31.1268 137.929L33.1581 145.042L24.397 154.797C23.7752 155.489 23.4811 156.416 23.5897 157.34C23.6983 158.264 24.1992 159.097 24.9646 159.627L27.83 161.609C28.5045 162.075 29.3309 162.268 30.1424 162.15C36.9781 161.149 42.921 159.406 46.8359 154.808C50.5364 150.463 51.8708 144.234 51.6319 135.735L69.745 119.183C70.394 118.59 70.7741 117.758 70.7981 116.879C70.8222 116.001 70.488 115.15 69.8724 114.522L56.2521 100.636C55.0303 99.3907 53.0414 99.3363 51.7534 100.513L33.1502 117.514C23.8422 117.294 17.3157 119.382 12.9672 123.596C8.47389 127.951 6.94723 133.979 6.31949 139.869C6.21388 140.86 6.57006 141.844 7.28526 142.538L10.163 145.329C10.7798 145.928 11.609 146.257 12.4682 146.244C13.3274 146.23 14.1462 145.877 14.7445 145.26L24.1 135.616Z" fill="#2C2C2E" stroke="black" stroke-width="6.48" stroke-linejoin="round"/>
<path d="M164.937 23.086L155.581 32.7293L148.555 30.4154L146.524 23.3025L155.286 13.5481C155.907 12.8558 156.202 11.9294 156.093 11.0051C155.984 10.0808 155.484 9.2478 154.718 8.71837L151.853 6.73647C151.178 6.26992 150.352 6.07653 149.541 6.19529C142.705 7.19577 136.762 8.93836 132.847 13.5354C129.146 17.8807 127.811 24.1093 128.049 32.6082L114.925 44.6024C114.258 45.2117 113.876 46.0716 113.871 46.9747C113.865 47.8778 114.237 48.7422 114.896 49.3594L129.13 62.6844C130.365 63.8404 132.282 63.8519 133.53 62.7108L146.53 50.8306C155.838 51.0513 162.365 48.9641 166.713 44.7499C171.207 40.3953 172.734 34.3671 173.362 28.4775C173.468 27.4867 173.112 26.5024 172.396 25.8085L169.519 23.0167C168.235 21.7707 166.183 21.8017 164.937 23.086Z" fill="#2C2C2E" stroke="black" stroke-width="6.48" stroke-linejoin="round"/>
</svg>
