<svg width="202" height="187" viewBox="0 0 202 187" fill="none" xmlns="http://www.w3.org/2000/svg">
<path fill-rule="evenodd" clip-rule="evenodd" d="M142.467 39.2791L32.9828 148.306H142.467V39.2791ZM118.764 97.4571L90.7029 125.401H118.764V97.4571Z" fill="#AEAEB2"/>
<path d="M48.5581 147.389V143.266" stroke="black" stroke-width="3.66476" stroke-linecap="round" stroke-linejoin="round"/>
<path d="M61.3846 147.389V143.266" stroke="black" stroke-width="3.66476" stroke-linecap="round" stroke-linejoin="round"/>
<path d="M54.9716 147.389V141.434" stroke="black" stroke-width="3.66476" stroke-linecap="round" stroke-linejoin="round"/>
<path d="M67.798 147.389V141.434" stroke="black" stroke-width="3.66476" stroke-linecap="round" stroke-linejoin="round"/>
<path d="M80.6248 147.389V141.434" stroke="black" stroke-width="3.66476" stroke-linecap="round" stroke-linejoin="round"/>
<path d="M74.2114 147.389V143.266" stroke="black" stroke-width="3.66476" stroke-linecap="round" stroke-linejoin="round"/>
<path d="M87.0381 147.389V143.266" stroke="black" stroke-width="3.66476" stroke-linecap="round" stroke-linejoin="round"/>
<path d="M99.8646 147.389V143.266" stroke="black" stroke-width="3.66476" stroke-linecap="round" stroke-linejoin="round"/>
<path d="M93.4512 147.389V141.434" stroke="black" stroke-width="3.66476" stroke-linecap="round" stroke-linejoin="round"/>
<path d="M106.278 147.389V141.434" stroke="black" stroke-width="3.66476" stroke-linecap="round" stroke-linejoin="round"/>
<path d="M119.105 147.389V141.434" stroke="black" stroke-width="3.66476" stroke-linecap="round" stroke-linejoin="round"/>
<path d="M112.691 147.389V143.266" stroke="black" stroke-width="3.66476" stroke-linecap="round" stroke-linejoin="round"/>
<path d="M125.518 147.389V143.266" stroke="black" stroke-width="3.66476" stroke-linecap="round" stroke-linejoin="round"/>
<path d="M131.931 147.389V141.434" stroke="black" stroke-width="3.66476" stroke-linecap="round" stroke-linejoin="round"/>
<path d="M142.467 56.2286V39.2791L32.9828 148.306H142.467V132.272" stroke="black" stroke-width="7.32952" stroke-linecap="round" stroke-linejoin="round"/>
<path d="M87.9542 125.999L120.296 93.7924V125.999H87.9542Z" stroke="black" stroke-width="7.32952" stroke-linecap="round" stroke-linejoin="round"/>
<rect x="137.428" y="56.2285" width="50.3904" height="74.2114" rx="4.58095" fill="#3A3A3C" stroke="black" stroke-width="7.32952"/>
<rect x="145.674" y="67.2227" width="33.899" height="12.8267" rx="4.58095" fill="#34C759" stroke="black" stroke-width="3.66476"/>
<rect x="146.59" y="86.4627" width="6.41333" height="6.41333" rx="0.91619" fill="#FF2D55" stroke="black" stroke-width="2.74857"/>
<rect x="172.244" y="86.4627" width="6.41333" height="6.41333" rx="0.91619" fill="#FF2D55" stroke="black" stroke-width="2.74857"/>
<rect x="159.417" y="86.4627" width="6.41333" height="6.41333" rx="0.91619" fill="#FF2D55" stroke="black" stroke-width="2.74857"/>
<rect x="146.59" y="110.284" width="6.41333" height="6.41333" rx="0.91619" fill="#FF2D55" stroke="black" stroke-width="2.74857"/>
<rect x="172.244" y="110.284" width="6.41333" height="6.41333" rx="0.91619" fill="#FF2D55" stroke="black" stroke-width="2.74857"/>
<rect x="159.417" y="110.284" width="6.41333" height="6.41333" rx="0.91619" fill="#FF2D55" stroke="black" stroke-width="2.74857"/>
<rect x="146.59" y="98.3732" width="6.41333" height="6.41333" rx="0.91619" fill="#FF2D55" stroke="black" stroke-width="2.74857"/>
<rect x="172.244" y="98.3732" width="6.41333" height="6.41333" rx="0.91619" fill="#FF2D55" stroke="black" stroke-width="2.74857"/>
<rect x="159.417" y="98.3732" width="6.41333" height="6.41333" rx="0.91619" fill="#FF2D55" stroke="black" stroke-width="2.74857"/>
<path d="M85.656 63.3141C87.445 61.5251 90.3455 61.5251 92.1345 63.3141L92.9245 64.1041C94.7134 65.8931 94.7134 68.7936 92.9245 70.5825L49.0598 114.447C47.2708 116.236 44.3703 116.236 42.5814 114.447L41.7914 113.657C40.0024 111.868 40.0024 108.968 41.7914 107.179L85.656 63.3141Z" fill="#FF2D55" stroke="black" stroke-width="7.32952"/>
<path d="M92.3789 56.3375C92.9451 55.7713 93.863 55.7713 94.4292 56.3375L99.6474 61.5557C100.214 62.1218 100.214 63.0398 99.6474 63.6059V63.6059C99.0812 64.1721 98.1633 64.1721 97.5972 63.6059L92.3789 58.3877C91.8128 57.8215 91.8128 56.9036 92.3789 56.3375V56.3375Z" stroke="black" stroke-width="7.32952"/>
<circle cx="103.071" cy="52.1057" r="6.87142" fill="#FFCC00" stroke="black" stroke-width="7.32952"/>
<path d="M39.8542 111.2L44.8932 117.613L35.7313 121.278L39.8542 111.2Z" fill="#1C1C1E" stroke="black" stroke-width="3.66476" stroke-linecap="round" stroke-linejoin="round"/>
</svg>
