<svg width="61" height="67" viewBox="0 0 61 67" fill="none" xmlns="http://www.w3.org/2000/svg">
<circle cx="30.5" cy="33.5" r="30.5" fill="#242F40"/>
<path d="M26.0156 36H22.4219C22.3177 36 22.2656 35.9479 22.2656 35.8438L22.3281 13.8594C22.3281 13.776 22.3698 13.7344 22.4531 13.7344H32.7031C32.8073 13.7344 32.8594 13.776 32.8594 13.8594V17.4688C32.8594 17.5521 32.8177 17.5938 32.7344 17.5938H26.1719V22.5625H32.7344C32.8177 22.5625 32.8594 22.6146 32.8594 22.7188L32.8906 26.3438C32.8906 26.4271 32.8385 26.4688 32.7344 26.4688H26.1719V35.8438C26.1719 35.9479 26.1198 36 26.0156 36Z" fill="white"/>
<path d="M34.0156 55H30.4219C30.3177 55 30.2656 54.9479 30.2656 54.8438L30.3281 32.8594C30.3281 32.776 30.3698 32.7344 30.4531 32.7344H36.6094C38.5677 32.7344 40.1146 33.3333 41.25 34.5312C42.3958 35.7188 42.9688 37.3385 42.9688 39.3906C42.9688 40.8906 42.6719 42.1979 42.0781 43.3125C41.474 44.4167 40.6927 45.2708 39.7344 45.875C38.776 46.4792 37.7344 46.7812 36.6094 46.7812H34.1719V54.8438C34.1719 54.9479 34.1198 55 34.0156 55ZM36.6094 36.5312L34.1719 36.5625V42.9062H36.6094C37.2865 42.9062 37.875 42.5833 38.375 41.9375C38.875 41.2812 39.125 40.4323 39.125 39.3906C39.125 38.5573 38.901 37.875 38.4531 37.3438C38.0052 36.8021 37.3906 36.5312 36.6094 36.5312Z" fill="white"/>
</svg>
