<svg width="41" height="41" viewBox="0 0 41 41" fill="none" xmlns="http://www.w3.org/2000/svg">
<circle cx="20.6014" cy="20.9213" r="20" fill="black"/>
<circle cx="20.6014" cy="20.9213" r="20" fill="#425F57"/>
<path d="M11.8307 27.6045C10.8571 27.6045 10.1606 27.3274 9.74117 26.7732C9.32176 26.204 9.11206 25.3652 9.11206 24.2568C9.11206 23.1334 9.58389 19.9654 10.5275 14.7528L9.33674 12.3487C11.0293 11.2552 12.5721 10.7085 13.9652 10.7085C14.8489 10.7085 15.3956 11.1279 15.6053 11.9667C17.1332 11.9218 19.1703 11.5398 21.7166 10.8208C21.8365 11.4949 21.8964 12.0641 21.8964 12.5284C21.8964 13.4871 21.5294 14.2435 20.7955 14.7977C20.0765 15.3369 19.2377 15.6066 18.279 15.6066C17.3204 15.6066 16.3618 15.3744 15.4031 14.91C15.4031 14.91 15.3357 15.277 15.2009 16.011C15.0961 16.5951 14.9238 17.4864 14.6841 18.6847C15.1934 18.8045 15.6727 18.8644 16.1221 18.8644C16.7362 18.7446 17.4103 18.5723 18.1442 18.3477C18.2191 18.6023 18.2566 19.0217 18.2566 19.6059C18.2566 20.1751 18.0244 20.6319 17.5601 20.9764C17.0957 21.3209 16.5715 21.4932 15.9873 21.4932C15.4031 21.4932 14.8115 21.4258 14.2123 21.291C14.0475 22.2347 13.9652 22.9162 13.9652 23.3356C13.9652 24.7885 14.1898 25.8745 14.6392 26.5935C13.7405 27.2675 12.8043 27.6045 11.8307 27.6045Z" fill="white"/>
<path d="M22.1061 30.7463C21.3322 30.7463 20.7892 30.5529 20.4772 30.1659C20.1776 29.7914 20.0278 29.2422 20.0278 28.5182C20.0278 27.8067 20.1776 26.365 20.4772 24.1931C20.7892 22.0212 21.0888 20.1676 21.3759 18.6323L20.3274 17.1344C21.1013 16.685 21.7691 16.348 22.3308 16.1233C22.8925 15.8862 23.4479 15.7676 23.9972 15.7676C24.8959 15.7676 25.3452 16.3605 25.3452 17.5463C25.3452 17.7086 25.3203 18.0394 25.2703 18.5386L25.4576 18.6323C25.8196 17.7335 26.3438 17.0345 27.0303 16.5352C27.7169 16.0235 28.522 15.7676 29.4457 15.7676C30.3818 15.7676 31.1245 16.192 31.6737 17.0408C32.223 17.8771 32.4976 18.9194 32.4976 20.1676C32.4976 21.8402 31.9109 23.3631 30.7376 24.7361C30.1634 25.4101 29.3957 25.9594 28.4346 26.3838C27.4735 26.7957 26.4 27.0016 25.2142 27.0016C24.8522 27.0016 24.3779 26.9704 23.7912 26.908C23.7538 27.3449 23.735 27.7506 23.735 28.125C23.735 28.9239 23.9285 29.4919 24.3155 29.8289C23.6164 30.4405 22.88 30.7463 22.1061 30.7463ZM24.5589 22.9948L24.1282 25.1667C25.6386 25.1293 26.8431 24.6362 27.7418 23.6876C28.653 22.7265 29.1086 21.6779 29.1086 20.5421C29.1086 19.9554 28.9901 19.4873 28.7529 19.1378C28.5282 18.7758 28.1974 18.5948 27.7606 18.5948C26.2128 18.5948 25.1455 20.0615 24.5589 22.9948Z" fill="white"/>
</svg>
