<svg width="167" height="203" viewBox="0 0 167 203" fill="none" xmlns="http://www.w3.org/2000/svg">
<path d="M71.895 122.5H69.6471C68.4438 122.5 67.6711 121.222 68.2305 120.156L77.3166 102.849C77.4371 102.62 77.5 102.365 77.5 102.106V75.5239C77.5 74.6705 78.1697 73.9673 79.022 73.9258L96.322 73.0819C97.2352 73.0373 98 73.7657 98 74.68V102.023C98 102.334 98.0908 102.639 98.2613 102.899L114.379 127.524C115.076 128.588 114.312 130 113.04 130H110.459C110.159 130 109.865 129.916 109.611 129.757L102.215 125.134C102.072 125.045 101.917 124.979 101.755 124.939L98.8383 124.21C98.3152 124.079 97.7613 124.22 97.365 124.586L91.6941 129.821C91.5656 129.939 91.4185 130.036 91.2586 130.107L87.5671 131.748C87.2023 131.91 86.79 131.93 86.4113 131.804L81.3087 130.103C81.105 130.035 80.917 129.927 80.756 129.785L72.9536 122.9C72.6613 122.642 72.2849 122.5 71.895 122.5Z" fill="#34C759"/>
<path d="M138 86.9506C138 94.4064 130.956 102 123.5 102C116.044 102 103.5 89.4558 103.5 82C103.5 74.5442 97.5441 71.5 105 71.5C109.895 71.5 123.155 74.0643 131 79C135.104 81.5823 138 84.3896 138 86.9506Z" fill="#63E6E2"/>
<path d="M140 66.5C140 75.6127 132.613 83 123.5 83C114.387 83 105.5 73.1127 105.5 64C105.5 54.8873 114.387 50 123.5 50C132.613 50 140 57.3873 140 66.5Z" fill="#63E6E2"/>
<ellipse cx="105.5" cy="37" rx="21.5" ry="22" fill="#63E6E2"/>
<ellipse cx="67.5" cy="44.0465" rx="23.5" ry="24.0465" fill="#63E6E2"/>
<rect x="81" y="50" width="18" height="8" fill="#34C759"/>
<rect x="78" y="61" width="26" height="9" fill="#A2845E"/>
<path d="M51.5722 164.067L46.8704 153.808C46.6401 153.306 46.6855 152.72 46.9906 152.259L68.3875 119.926C68.7558 119.369 69.4311 119.099 70.0815 119.25L75.03 120.392C75.3365 120.462 75.6154 120.622 75.8317 120.85L84.0267 129.5C84.3288 129.819 84.7489 130 85.1882 130H89.9982C90.3249 130 90.6437 129.9 90.9119 129.713L101.105 122.622C101.645 122.247 102.36 122.24 102.907 122.604L113.267 129.512C113.724 129.816 114.304 129.865 114.805 129.642L117.343 128.514C118.021 128.213 118.817 128.417 119.266 129.008L136.853 152.149C137.245 152.664 137.287 153.364 136.961 153.923L130.963 164.206C130.676 164.698 130.15 165 129.581 165H53.0267C52.4011 165 51.8329 164.635 51.5722 164.067Z" fill="#5856D6"/>
<path d="M100.5 71.5V101.979C100.5 102.318 100.607 102.647 100.806 102.921L134.435 149.114C139.247 155.724 134.526 165 126.351 165H56.393C48.3644 165 43.6092 156.016 48.1237 149.377L79.7231 102.907C79.9035 102.642 80 102.328 80 102.008V71.5M100.5 71.5H80M100.5 71.5H102.9C103.784 71.5 104.5 70.7837 104.5 69.9V62.1C104.5 61.2163 103.784 60.5 102.9 60.5H100.5M80 71.5H77.1C76.2163 71.5 75.5 70.7837 75.5 69.9V62.1C75.5 61.2163 76.2163 60.5 77.1 60.5H80M80 60.5V52.5C80 50.8431 81.3431 49.5 83 49.5H97.5C99.1569 49.5 100.5 50.8431 100.5 52.5V60.5M80 60.5H100.5" stroke="black" stroke-width="8" stroke-linecap="round" stroke-linejoin="round"/>
<path d="M66.7397 123.218C67.4043 121.889 69.5995 120.855 70.898 120.397C74.124 119.258 77.4391 122.458 79.3556 124.723C81.3688 127.102 83.2176 129.238 86.3487 130.138C89.2988 130.985 91.6331 130.188 93.7046 128.015C95.6194 126.006 97.655 123.406 100.503 122.721C103.195 122.074 105.43 123.504 107.436 125.099C108.766 126.158 110.063 127.27 111.507 128.176C112.727 128.942 114.262 129.824 115.766 129.788C117.14 129.756 118.231 128.901 119.218 128.055" stroke="black" stroke-width="4" stroke-linecap="round"/>
<circle cx="68.5" cy="142.5" r="4.5" fill="#AF52DE" stroke="black" stroke-width="2"/>
<circle cx="100.5" cy="142.5" r="4.5" fill="#AF52DE" stroke="black" stroke-width="2"/>
<circle cx="33" cy="65" r="9" fill="#63E6E2" stroke="black" stroke-width="4"/>
<circle cx="141" cy="38" r="8" fill="#63E6E2" stroke="black" stroke-width="4"/>
<circle cx="56" cy="90" r="13" fill="#63E6E2" stroke="black" stroke-width="4"/>
<path d="M73.5 69H68C54.1929 69 43 57.8071 43 44C43 30.1929 54.1929 19 68 19C81.8071 19 93 30.1929 93 44V47.5" stroke="black" stroke-width="4"/>
<path d="M111.743 92.7437C111.368 91.7048 110.221 91.1665 109.182 91.5415C108.143 91.9165 107.605 93.0627 107.98 94.1017L111.743 92.7437ZM132.339 79.6613C133.663 80.9855 134.673 82.5903 135.294 84.3572L139.068 83.0315C138.248 80.6992 136.915 78.5808 135.167 76.8329L132.339 79.6613ZM135.294 84.3572C135.914 86.1241 136.13 88.0079 135.925 89.8693L139.901 90.3075C140.172 87.8503 139.887 85.3638 139.068 83.0315L135.294 84.3572ZM135.925 89.8693C135.72 91.7308 135.099 93.5224 134.109 95.1117L137.503 97.2274C138.811 95.1295 139.63 92.7646 139.901 90.3075L135.925 89.8693ZM134.109 95.1117C133.118 96.701 131.783 98.0475 130.202 99.0515L132.347 102.428C134.434 101.103 136.196 99.3253 137.503 97.2274L134.109 95.1117ZM130.202 99.0515C128.621 100.056 126.835 100.692 124.976 100.913L125.448 104.885C127.902 104.593 130.26 103.753 132.347 102.428L130.202 99.0515ZM124.976 100.913C123.116 101.134 121.23 100.934 119.458 100.329L118.165 104.114C120.504 104.913 122.993 105.177 125.448 104.885L124.976 100.913ZM119.458 100.329C117.686 99.7231 116.073 98.7271 114.737 97.4142L111.933 100.267C113.696 102 115.826 103.314 118.165 104.114L119.458 100.329ZM114.737 97.4142C113.402 96.1014 112.378 94.5052 111.743 92.7437L107.98 94.1017C108.819 96.4269 110.17 98.5338 111.933 100.267L114.737 97.4142Z" fill="black"/>
<path d="M114.906 50.923C116.968 49.6525 119.276 48.837 121.678 48.531C124.08 48.2249 126.519 48.4355 128.833 49.1485C131.147 49.8615 133.282 51.0605 135.095 52.6653C136.908 54.2701 138.357 56.2436 139.345 58.4538C140.334 60.664 140.839 63.0599 140.827 65.4811C140.814 67.9022 140.285 70.2928 139.274 72.4928C138.263 74.6929 136.794 76.6516 134.965 78.2379C133.135 79.8241 130.989 81.0014 128.668 81.6908" stroke="black" stroke-width="4" stroke-linecap="round" stroke-linejoin="round"/>
<path d="M86.092 24.7404C85.5948 25.7267 85.9913 26.9294 86.9777 27.4265C87.964 27.9237 89.1667 27.5272 89.6639 26.5408L86.092 24.7404ZM89.6639 26.5408C90.8482 24.1912 92.5208 22.1217 94.5697 20.4708L92.0599 17.3561C89.5675 19.3645 87.5327 21.8821 86.092 24.7404L89.6639 26.5408ZM94.5697 20.4708C96.6185 18.8199 98.9964 17.6257 101.544 16.9681L100.544 13.095C97.4451 13.895 94.5524 15.3478 92.0599 17.3561L94.5697 20.4708ZM101.544 16.9681C104.092 16.3105 106.751 16.2047 109.343 16.6578L110.031 12.7176C106.878 12.1664 103.644 12.2951 100.544 13.095L101.544 16.9681ZM109.343 16.6578C111.934 17.1109 114.4 18.1125 116.573 19.5954L118.828 16.2911C116.183 14.4871 113.184 13.2688 110.031 12.7176L109.343 16.6578ZM116.573 19.5954C118.747 21.0783 120.579 23.0084 121.946 25.2565L125.363 23.1779C123.7 20.4431 121.472 18.0951 118.828 16.2911L116.573 19.5954ZM121.946 25.2565C123.313 27.5045 124.184 30.0188 124.501 32.6308L128.472 32.1489C128.087 28.9713 127.027 25.9127 125.363 23.1779L121.946 25.2565ZM124.501 32.6308C124.818 35.2429 124.574 37.8925 123.784 40.4024L127.599 41.6031C128.56 38.5498 128.858 35.3265 128.472 32.1489L124.501 32.6308ZM123.784 40.4024C122.994 42.9123 121.677 45.2245 119.921 47.1842L122.901 49.8533C125.037 47.4692 126.639 44.6564 127.599 41.6031L123.784 40.4024Z" fill="black"/>
<circle cx="84.5" cy="152.5" r="4.5" fill="#AF52DE" stroke="black" stroke-width="2"/>
<circle cx="116.5" cy="152.5" r="4.5" fill="#AF52DE" stroke="black" stroke-width="2"/>
</svg>
