<svg width="180" height="180" viewBox="0 0 180 180" fill="none" xmlns="http://www.w3.org/2000/svg">
<rect x="123.768" y="36.2578" width="40.0198" height="14.6351" transform="rotate(43.949 123.768 36.2578)" fill="#636366"/>
<rect x="70.6742" y="30.6773" width="40.0198" height="14.6351" transform="rotate(4.50173 70.6742 30.6773)" fill="#636366"/>
<path d="M57.6667 121.344L43.4677 64.5479C43.2376 63.6277 44.0194 62.7702 44.957 62.9144L154.87 79.8241C155.602 79.9367 156.1 80.6274 155.976 81.3579L148.928 122.864C148.818 123.511 148.252 123.981 147.596 123.969L58.93 122.349C58.3301 122.338 57.8122 121.926 57.6667 121.344Z" fill="#FF9F0A"/>
<path d="M149.332 122.045L155.784 82.193C155.958 81.1212 154.786 80.3317 153.814 80.8163C66.7794 124.23 49.5011 87.7823 56.0369 122.039C56.1557 122.662 56.7114 123.16 57.3456 123.16H148.022C148.673 123.16 149.228 122.688 149.332 122.045Z" fill="#FF9500"/>
<path d="M23.9062 49.7545H38.6252C39.2361 49.7545 39.7681 50.1716 39.914 50.7648L57.665 122.979C57.8108 123.572 58.3428 123.989 58.9537 123.989H62.8899M55.0103 63.4403L73.8036 66.3433L91.9204 69.1418L109.339 71.8325L126.342 74.459L155.704 78.9946C156.435 79.1075 156.932 79.7953 156.811 80.5244L149.751 122.881C149.645 123.52 149.091 123.989 148.442 123.989H113.071H95.2381H76.5757H62.8899M62.8899 123.989L58.4765 137.598C58.1985 138.455 58.8376 139.334 59.7389 139.334H151.64" stroke="black" stroke-width="6.63552" stroke-linecap="round" stroke-linejoin="round"/>
<path d="M92.7498 69.6611L74.5021 121.916" stroke="black" stroke-width="6.63552" stroke-linecap="round" stroke-linejoin="round"/>
<path d="M147.078 77.9554L131.319 123.575" stroke="black" stroke-width="6.63552" stroke-linecap="round" stroke-linejoin="round"/>
<path d="M74.5022 67.1727L57.084 117.354" stroke="black" stroke-width="6.63552" stroke-linecap="round" stroke-linejoin="round"/>
<path d="M128.416 75.4672L111.412 123.575" stroke="black" stroke-width="6.63552" stroke-linecap="round" stroke-linejoin="round"/>
<path d="M110.997 72.1494L92.7498 123.575" stroke="black" stroke-width="6.63552" stroke-linecap="round" stroke-linejoin="round"/>
<path d="M45.8865 73.8083L154.128 90.3971" stroke="black" stroke-width="6.63552" stroke-linecap="round" stroke-linejoin="round"/>
<path d="M50.0337 88.3235L151.225 104.083" stroke="black" stroke-width="6.63552" stroke-linecap="round" stroke-linejoin="round"/>
<path d="M52.9368 103.668L149.567 117.354" stroke="black" stroke-width="6.63552" stroke-linecap="round" stroke-linejoin="round"/>
<circle cx="75.7463" cy="146.384" r="6.2208" fill="#636366" stroke="black" stroke-width="6.63552"/>
<circle cx="129.66" cy="146.384" r="6.2208" fill="#636366" stroke="black" stroke-width="6.63552"/>
<path fill-rule="evenodd" clip-rule="evenodd" d="M73.8205 26.7844C69.7051 26.5375 66.1688 29.6736 65.922 33.789L64.2126 62.2862L70.8015 63.2629L72.5456 34.1863C72.573 33.729 72.966 33.3806 73.4232 33.408L107.449 35.449C107.906 35.4764 108.255 35.8693 108.227 36.3266L106.296 68.5244L112.885 69.501L114.851 36.7239C115.098 32.6085 111.962 29.0722 107.846 28.8253L73.8205 26.7844Z" fill="black"/>
<path fill-rule="evenodd" clip-rule="evenodd" d="M127.984 36.7108C125.004 33.8619 120.279 33.9682 117.43 36.9483L89.6084 66.0507L97.6488 67.2425L122.226 41.5336C122.543 41.2025 123.068 41.1907 123.399 41.5072L148.038 65.0619C148.369 65.3785 148.381 65.9035 148.065 66.2346L140.963 73.6631L149.003 74.855L152.861 70.8199C155.71 67.8398 155.604 63.1145 152.623 60.2655L127.984 36.7108Z" fill="black"/>
<path d="M138.665 73.7316L113.242 48.667C112.699 48.1317 111.818 48.1629 111.314 48.7353L95.5589 66.6386C94.8739 67.417 95.3062 68.6451 96.3278 68.8228L137.505 75.9841C138.787 76.207 139.591 74.6448 138.665 73.7316Z" fill="#34C759" stroke="black" stroke-width="6.63552" stroke-linecap="round" stroke-linejoin="round"/>
<path d="M108.509 46.8515L70.8557 45.1643C70.1218 45.1314 69.5008 45.7011 69.4703 46.4351L68.7463 63.8886C68.7178 64.5742 69.2167 65.1684 69.8968 65.2591L92.7748 68.3096C93.2686 68.3754 93.7578 68.1591 94.0413 67.7495L108.509 46.8515Z" fill="#FF3B30" stroke="black" stroke-width="6.63552" stroke-linecap="round" stroke-linejoin="round"/>
</svg>
