<svg width="180" height="180" viewBox="0 0 180 180" fill="none" xmlns="http://www.w3.org/2000/svg">
<path d="M60.8044 152.763C73.7968 152.763 81.1658 138.882 82.7322 124.919C83.1145 121.512 85.0456 118.388 88.1897 117.019L88.52 116.875C97.5962 112.925 104.152 110.072 102.671 103.554C102.558 103.058 102.195 102.663 101.729 102.457L88.5286 96.6382C85.1219 95.1364 84.2998 90.674 86.9477 88.0568L88.7718 86.2539C77.3671 84.0019 74.8499 80.355 80.2818 69.1652C80.8175 68.0616 80.1268 66.7439 78.9029 66.828C71.5151 67.3359 63.9752 74.2644 57.8621 87.8528C56.3554 91.2018 53.1014 93.4389 49.4512 93.8418C36.5355 95.2673 24 101.414 24 114.873C24 130.456 46.0621 152.763 60.8044 152.763Z" fill="#AF52DE"/>
<path d="M88.7717 86.2539L130.369 45.1389L132.391 47.1544L86.2844 93.5095M88.7717 86.2539L86.9477 88.0568C84.2998 90.674 85.1219 95.1364 88.5286 96.6382L101.729 102.457C102.195 102.663 102.558 103.058 102.671 103.554C104.17 110.151 97.4365 112.994 88.1897 117.019C85.0456 118.388 83.1145 121.512 82.7322 124.919C81.1658 138.882 73.7968 152.763 60.8044 152.763C46.0621 152.763 24 130.456 24 114.873C24 101.414 36.5355 95.2673 49.4512 93.8418C53.1014 93.4389 56.3554 91.2018 57.8621 87.8528C63.9752 74.2644 71.5151 67.3359 78.9029 66.828C80.1268 66.7439 80.8175 68.0616 80.2818 69.1652C74.8499 80.355 77.3671 84.0019 88.7717 86.2539Z" stroke="black" stroke-width="7.0357"/>
<path d="M87.6741 108.199C88.869 108.425 90.1324 109.478 89.2912 110.356C87.4646 112.263 82.9814 112.555 78.8133 117.753C74.2383 121.346 73.8323 133.529 68.0266 139.531C67.1988 140.386 66.0873 140.899 64.9148 141.106C56.5985 142.574 51.8343 138.856 50.0978 132.471C44.6412 127.202 40.0895 122.907 36.5904 119.622C31.3144 114.669 40.8517 108.731 47.2662 105.381C49.6829 104.118 52.0809 102.758 54.1418 101.227C56.8776 97.3745 59.0736 94.3062 60.8849 91.9556C66.6856 84.4281 68.5417 84.2603 71.5485 89.2743C71.8113 89.7126 72.0233 90.1849 72.2047 90.6626C76.0255 100.722 82.9059 107.298 87.6741 108.199Z" fill="#BF5AF2"/>
<path d="M154.668 32.0059C154.049 30.5552 153.189 29.8263 151.473 29.1848C151.167 29.0701 150.825 29.0808 150.519 29.1977C136.493 34.565 127.139 37.9337 124.707 40.705C122.012 43.1179 122.155 45.7537 124.384 51.5681C124.578 52.0728 125.052 52.4197 125.591 52.4575C131.648 52.8821 135.032 52.9322 136.84 49.976C139.821 43.8723 143.037 40.2516 154.089 33.6137C154.645 33.2798 154.923 32.6023 154.668 32.0059Z" fill="black" stroke="black" stroke-width="2.81428" stroke-linecap="round" stroke-linejoin="round"/>
<rect width="14.8414" height="6.68313" rx="1.75893" transform="matrix(0.683223 0.73021 -0.732495 0.680772 59.3506 106.7)" fill="#FF2D55" stroke="black" stroke-width="3.51785"/>
<rect width="14.8414" height="6.68313" rx="1.75893" transform="matrix(0.683223 0.73021 -0.732495 0.680772 68.9354 97.9435)" fill="#FF2D55" stroke="black" stroke-width="3.51785"/>
<ellipse cx="68.8933" cy="129.384" rx="2.42667" ry="2.41853" fill="black"/>
<ellipse cx="69.7022" cy="136.64" rx="2.42667" ry="2.41853" fill="black"/>
<ellipse cx="63.2311" cy="139.058" rx="2.42667" ry="2.41853" fill="black"/>
<path d="M42.8427 141.477C51.4999 138.371 53.9692 134.263 46.1301 127.772L35.6836 119.604C30.9847 114.946 32.9145 108.725 54.0416 101.168" stroke="black" stroke-width="2.81428" stroke-linecap="round" stroke-linejoin="round"/>
<path d="M127.538 32.2401L130.773 37.8833" stroke="black" stroke-width="5.27678" stroke-linecap="round" stroke-linejoin="round"/>
<path d="M135.222 29.4185L138.458 35.0617" stroke="black" stroke-width="5.27678" stroke-linecap="round" stroke-linejoin="round"/>
<path d="M143.311 27L146.547 32.6432" stroke="black" stroke-width="5.27678" stroke-linecap="round" stroke-linejoin="round"/>
</svg>
