<svg width="616" height="556" viewBox="0 0 616 556" fill="none" xmlns="http://www.w3.org/2000/svg">
<path d="M330.201 91.6907C327.277 87.5149 322.171 85.9545 327.2 68.2907C327.401 67.8938 323.801 65.9916 323.999 65.6001C323.161 64.3514 323.056 63.8538 324.599 62.4001C324.579 61.7336 329.926 62.1325 330.09 62.6001C333.418 56.1271 337.497 48.7178 346.996 34.0908C347.28 39.4417 347.279 42.5485 368.996 33.2908C371.52 42.0464 373.485 43.2117 376.996 45.2908C367.654 77.0014 371.13 71.5364 374.596 69.0907C379.27 65.8045 381.186 65.8733 382.799 70.6907C384.681 78.5701 381.826 80.0984 375.199 81.6907L371.399 94.4398L375.694 105.29L382.799 123.24C382.121 160.777 367.017 157.971 358.999 155.29C354.467 152.987 352.911 151.029 352.799 145.691C352.529 140.899 352.959 136.964 355.399 126.232L351.199 98.4317C344.263 97.9892 336.379 97.0278 330.201 91.6907Z" fill="#FCB19E"/>
<path d="M341.2 19.8907C336.837 36.2707 341.916 36.0258 346.996 34.0907C347.281 39.4417 347.28 42.5484 368.996 33.2907C371.521 42.0464 373.486 43.2116 376.996 45.2907C367.655 77.0013 371.131 71.5364 374.596 69.0907C379.27 65.8044 381.186 65.8733 382.8 70.6907C384.682 78.5701 381.827 80.0984 375.2 81.6907L371.4 94.4397L375.695 105.29C380.698 113.937 400.972 109.196 406.997 98.4907C411.893 105.239 417.166 90.8111 419.197 70.4907L415.4 42.2904C419.382 40.5352 423.246 38.4934 424.997 49.4904C423.388 55.306 423.778 64.4316 424.2 69.2904C426.186 91.7324 456.403 105.09 458.4 128.69C458.897 138.701 452.462 147.087 446.6 157.29C465.895 143.381 489.44 148.261 488.8 114.49C487.44 107.098 486.543 102.845 480.4 91.6907C474.085 78.9801 473.724 73.8205 478.697 50.8904C479.218 46.894 479.137 42.6356 476 36.2904C465.836 6.83876 424.082 3.11328 408.997 24.6907C397.173 7.62917 392.293 2.71685 390.6 12.4907C381.439 2.94948 374.702 0.637727 359.197 2.69071C346.541 4.77613 344.16 9.81818 341.2 19.8907Z" fill="black"/>
<path d="M335.6 162.89C340.745 152.562 344.457 145.496 355.4 126.232C352.96 136.964 352.529 140.898 352.8 145.691C352.912 151.029 354.468 152.987 359 155.29C367.017 157.971 382.121 160.777 382.8 123.24L408.4 139.491C435.406 158.237 445.786 168.81 462.6 187.691C487.104 220.002 497.677 239.1 501.8 251.59L483.2 256.29C465.686 259.719 460.366 257.896 458 248.49C436.183 258.569 417.601 263.051 398.6 262.641C379.734 254.387 366.107 249.337 352.8 237.763C346.189 232.014 339.657 224.654 332.6 214.491C330.866 211.56 329.446 208.82 328.469 205.89C325.482 196.933 326.634 186.211 335.6 162.89Z" fill="#FF453A"/>
<path d="M501.8 268.69C500.937 272.851 499.833 274.819 497.8 278.29C494.117 282.591 492.985 283.576 490.6 285.89L386.8 285.29L363.6 273.09L358.2 276.89H340.6L339 273.09L341.8 266.891L348.4 260.994L359.8 256.8C376.389 262.484 384.116 262.328 398.6 262.641C379.734 254.387 366.108 249.338 352.8 237.763C344 266.025 329.667 276.557 323.6 278.29C313.447 279.121 310.311 274.486 309.4 262.641L328.47 205.89C329.447 208.82 330.866 211.56 332.6 214.491C339.657 224.654 346.19 232.014 352.8 237.763C366.108 249.338 379.734 254.387 398.6 262.641C417.601 263.051 436.184 258.569 458 248.49C460.366 257.896 465.686 259.719 483.2 256.29L501.8 251.59V268.69Z" fill="#FCB19E"/>
<path d="M397 409.091V527.891H413.4V409.091H397Z" fill="#A44444"/>
<path d="M348 539.09L347.6 527.891H456L451.4 539.09H348Z" fill="#5F2222"/>
<path d="M458.03 409.091H358.25C346.427 409.091 333.826 404.536 329.342 393.597C325.214 383.525 328.612 375.604 339.599 364.891H475.999C486.772 376.744 489.874 384.998 486.114 394.332C481.843 404.934 469.459 409.091 458.03 409.091Z" fill="#BF5AF2"/>
<path d="M281.755 313.941C282.187 313.841 282.667 313.758 283.2 313.691C282.705 313.761 282.223 313.845 281.755 313.941C276.326 315.191 278.655 318.98 283.2 325.691C299.508 344.288 308.189 352.499 322.401 360.89C313.385 363.634 307.624 363.347 296.601 360.89L296.601 360.891L275.4 410.89C256.611 452.262 242.577 462.81 218.2 490.49C215.546 495.53 217.106 498.56 218.801 503.89C219.025 510.623 214.001 509.968 204.8 512.09C179.019 513.157 164.333 514.78 168.2 509.09C186.694 496.16 199.393 494.248 201.601 486.69C215.736 429.769 226.554 394.933 260.4 334.846C267.918 323.489 272.017 315.943 281.755 313.941Z" fill="#FCB19E"/>
<path d="M296.601 360.891L275.399 410.891C283.803 436.535 289.301 450 304.399 467.891C305.147 492.945 300.324 499.562 292.799 512.891C292.928 519.134 296.297 517.093 309.199 512.891C318.662 502.311 321.326 495.059 324.799 481.491C325.91 475.008 326.279 471.373 324.799 464.891C323.337 460.509 320.446 460.45 316.199 459.29C315.125 429.936 318.643 417.336 309.999 380.891C306.451 369.905 304.118 364.403 296.601 360.891Z" fill="#FCB19E"/>
<path d="M283.2 325.691C278.294 318.447 275.969 314.607 283.2 313.691H476C503.817 333.073 487.772 353.759 476 364.891H339.6C321.555 363.797 309.526 356.338 283.2 325.691Z" fill="#FF3B30"/>
<path d="M204.799 512.09C179.018 513.157 164.333 514.78 168.199 509.09L170.199 507.49L158.599 511.29C151.32 514.067 151.067 515.72 151.599 518.69C152.382 521.296 155.02 522.6 160.199 524.89C169.023 527.41 179.531 527.186 211.999 522.69C224.822 520.848 230.022 519.422 228.199 514.69L225.2 501.29C224.036 496.755 222.489 495.076 217 494.69L218.801 503.89C219.024 510.623 214.001 509.968 204.799 512.09Z" fill="#FF2D55"/>
<path d="M309.199 512.89C296.297 517.093 292.928 519.134 292.799 512.89L296.971 505.49C285.116 517.994 285.095 521.092 286.798 525.29C291.368 529.36 294.22 530.389 300.198 528.49C306.178 526.783 309.534 525.224 315.598 520.49C321.88 514.109 325.12 510.346 329.798 502.89C333.078 492.678 336.108 488.097 334.398 473.09C332.283 463.85 330.433 460.885 326.2 459.4H319.8C321.683 460.404 322.756 461.16 324.799 464.89C326.279 471.373 325.91 475.008 324.799 481.49C321.325 495.059 318.661 502.311 309.199 512.89Z" fill="#FF2D55"/>
<path d="M397 527.891V409.091M413.4 409.091V527.891M283.199 313.691C275.969 314.607 278.293 318.447 283.199 325.691C309.526 356.338 321.555 363.797 339.599 364.891M283.199 313.691H475.999C503.816 333.073 487.772 353.759 475.999 364.891M283.199 313.691C272.403 315.227 268.279 322.943 260.399 334.846C226.554 394.933 215.735 429.769 201.601 486.69C199.392 494.248 186.694 496.16 168.199 509.09C164.333 514.78 179.018 513.157 204.799 512.09C214.001 509.968 219.024 510.623 218.801 503.89C217.105 498.56 215.546 495.53 218.199 490.49C242.577 462.81 256.61 452.262 275.399 410.89M339.599 364.891C328.612 375.604 325.214 383.525 329.342 393.597C333.826 404.536 346.427 409.091 358.249 409.091H458.03C469.459 409.091 481.843 404.934 486.114 394.332C489.874 384.998 486.772 376.744 475.999 364.891M339.599 364.891H475.999M275.399 410.89L296.6 360.891M275.399 410.89C283.803 436.535 289.301 450 304.399 467.89C305.147 492.945 300.324 499.562 292.799 512.89C292.928 519.134 296.297 517.093 309.199 512.89C318.661 502.311 321.325 495.059 324.799 481.49C325.91 475.008 326.279 471.373 324.799 464.89C323.337 460.509 320.446 460.45 316.199 459.29C315.125 429.936 318.643 417.335 309.999 380.89C306.451 369.905 304.117 364.403 296.6 360.891M296.6 360.891L296.601 360.89C307.624 363.347 313.384 363.634 322.401 360.89M296.6 360.891L296.599 360.89M315.598 459.09H323.398C329.723 459.871 332.431 462.269 334.398 473.09C336.108 488.097 333.078 492.678 329.798 502.89C325.12 510.346 321.88 514.109 315.598 520.49C309.534 525.224 306.178 526.783 300.198 528.49C294.22 530.389 291.368 529.36 286.798 525.29C285.095 521.092 285.116 517.994 296.971 505.49M170.199 507.49L158.599 511.29C151.32 514.067 151.067 515.72 151.599 518.69C152.382 521.296 155.02 522.6 160.199 524.89C169.023 527.41 179.531 527.186 211.999 522.69C224.822 520.848 230.022 519.422 228.199 514.69L225.2 501.29C224.036 496.755 222.489 495.076 217 494.69M347.6 527.891L348 539.09H449.4L454 527.891H347.6Z" stroke="black" stroke-width="3.6"/>
<path d="M74.6 312.69L108.651 391.8L141.8 312.69H157.2L116.521 411.211L175.903 553.49H158.431L108.231 431.29L57.7747 553.49H40.8984L100.438 411.4L58 312.69H74.6Z" fill="#64D2FF"/>
<path d="M477.4 312.69L511.103 391.6L544.2 312.69H559.2L518.733 410.996L578.205 553.49H560.732L510.477 431.155L515.781 418.167L460.076 553.49H443.2L502.63 411.8L460 312.69H477.4Z" fill="#64D2FF"/>
<path d="M14.6 312.69L3 286.49H612.4L600.6 312.69H14.6Z" fill="#A2845E"/>
<path d="M108.735 391.6L74.6 312.69M58 312.69L100.438 411.4M157.2 312.69L57.7747 553.49H40.8984L141.8 312.69M108.176 431.155L158.431 553.49H175.903L116.42 410.968M511.15 391.486L477.4 312.69M460 312.69L502.546 412M559.2 312.69L460.076 553.49H443.2L544.2 312.69M510.477 431.155L560.732 553.49H578.205L518.721 410.968M3 286.49L14.6 312.69H600.6L612.4 286.49H3Z" stroke="black" stroke-width="3.6"/>
<path d="M346.997 34.0907C341.916 36.0258 336.837 36.2707 341.2 19.8907C344.161 9.81818 346.542 4.77613 359.197 2.69071C374.703 0.637727 381.439 2.94948 390.6 12.4907C392.294 2.71685 397.174 7.62917 408.997 24.6907C424.083 3.11328 465.837 6.83876 476 36.2904C479.137 42.6356 479.219 46.894 478.697 50.8904C473.725 73.8205 474.085 78.9801 480.4 91.6907C486.543 102.845 487.44 107.098 488.8 114.49C489.44 148.261 465.895 143.381 446.6 157.29C452.463 147.087 458.897 138.701 458.4 128.69C456.404 105.09 426.187 91.7324 424.2 69.2904C423.778 64.4316 423.388 55.306 424.997 49.4904C423.247 38.4934 419.382 40.5352 415.4 42.2904L419.197 70.4907C417.167 90.811 411.893 105.239 406.997 98.4907C400.973 109.196 380.698 113.937 375.695 105.29M346.997 34.0907C347.281 39.4417 347.28 42.5484 368.997 33.2907C371.521 42.0464 373.486 43.2116 376.997 45.2907C367.655 77.0013 371.131 71.5364 374.597 69.0907C379.271 65.8044 381.187 65.8733 382.8 70.6907C384.682 78.5701 381.827 80.0984 375.2 81.6907L371.4 94.4397L375.695 105.29M346.997 34.0907C340.164 44.8819 336.256 50.9264 330.504 61.8C329.491 61.7719 328.025 61.4402 327.011 61.4854C326.194 61.5218 325.042 61.6298 324.342 62.1109C323.171 62.9161 323.067 64.5778 323.641 65.7424C324.344 67.1695 325.53 68.2907 327.201 68.2907C322.172 85.9545 327.278 87.5148 330.202 91.6907C336.38 97.0278 344.264 97.9892 351.2 98.4317L355.4 126.232M375.695 105.29L382.8 123.24M355.4 126.232C344.458 145.496 340.745 152.562 335.6 162.89C326.635 186.211 325.482 196.933 328.47 205.89M355.4 126.232C352.96 136.964 352.53 140.899 352.8 145.691C352.912 151.029 354.468 152.987 359 155.29C367.018 157.971 382.122 160.777 382.8 123.24M382.8 123.24L408.4 139.491C435.406 158.237 445.787 168.81 462.6 187.691C487.104 220.002 497.677 239.101 501.8 251.59M458 248.49C448.103 245.919 443.247 241.774 436 233.29C427.315 220.888 423.286 212.784 426 184.69M458 248.49C460.366 257.896 465.686 259.719 483.2 256.29L501.8 251.59M458 248.49C436.184 258.569 417.601 263.051 398.6 262.641M501.8 251.59V268.69C500.937 272.85 499.833 274.819 497.8 278.29C494.117 282.591 492.985 283.576 490.6 285.89L386.8 285.29L363.6 273.09C361.617 272.67 360.401 274.012 358.2 276.89H340.6L339 273.09C339.351 271.153 339.584 270.044 341.8 266.891C344.439 263.598 345.901 262.046 348.4 260.994C352.096 258.935 355.014 258.251 359.8 256.8C376.389 262.484 384.116 262.328 398.6 262.641M398.6 262.641C379.734 254.387 366.108 249.338 352.8 237.763M328.47 205.89C329.447 208.82 330.866 211.56 332.6 214.491C339.657 224.654 346.19 232.014 352.8 237.763M328.47 205.89L309.4 262.641M352.8 237.763C344 266.025 329.667 276.557 323.6 278.29" stroke="black" stroke-width="3.6"/>
<path d="M413.2 274.89H318.8L268.6 160.29H137.2L129.4 170.09L177.6 284.89H413.2V274.89Z" fill="#5856D6"/>
<path d="M129.4 170.09L177.6 284.89H413.2V274.89H318.8L268.6 160.29H137.2L129.4 170.09ZM129.4 170.09H259.4" stroke="black" stroke-width="3.6"/>
<path d="M344.58 52.0266C352.572 48.0736 355.623 53.5923 361.543 60.8148" stroke="black" stroke-width="2.4" stroke-linecap="round"/>
<path d="M326 75.6C328.792 76.8475 330.483 77.2295 334 76.6" stroke="black" stroke-width="3.2" stroke-linecap="round"/>
<path d="M356.12 74.2C356.12 75.0836 355.404 75.8 354.52 75.8C353.636 75.8 352.92 75.0836 352.92 74.2C352.92 73.3163 353.636 72.6 354.52 72.6C355.404 72.6 356.12 73.3163 356.12 74.2Z" fill="#FF6D6D"/>
<path d="M357.72 79C357.72 79.8836 357.004 80.6 356.12 80.6C355.236 80.6 354.52 79.8836 354.52 79C354.52 78.1163 355.236 77.4 356.12 77.4C357.004 77.4 357.72 78.1163 357.72 79Z" fill="#FF6D6D"/>
<path d="M352.28 77.4C352.28 78.2836 351.564 79 350.68 79C349.796 79 349.08 78.2836 349.08 77.4C349.08 76.5163 349.796 75.8 350.68 75.8C351.564 75.8 352.28 76.5163 352.28 77.4Z" fill="#FF6D6D"/>
<path d="M341.4 168.984C342.116 166.479 345.473 166.173 347.209 167.839C348.191 168.781 348.672 170.123 349.913 170.802C351.249 171.532 352.192 171.515 353.375 170.648" stroke="white" stroke-width="2.56" stroke-linecap="round"/>
<path d="M388.537 222.269C387.362 219.943 389.62 217.44 392.026 217.485C393.386 217.51 394.651 218.17 396.022 217.826C397.499 217.455 398.18 216.803 398.46 215.363" stroke="white" stroke-width="2.56" stroke-linecap="round"/>
<path d="M402.282 160.717C404.859 161.099 405.601 164.387 404.177 166.326C403.371 167.423 402.104 168.075 401.593 169.394C401.044 170.814 401.184 171.746 402.199 172.806" stroke="white" stroke-width="2.56" stroke-linecap="round"/>
<path d="M400.736 255.279C399.45 253.013 401.584 250.404 403.989 250.333C405.349 250.292 406.644 250.889 407.997 250.479C409.455 250.038 410.103 249.354 410.313 247.902" stroke="white" stroke-width="2.56" stroke-linecap="round"/>
<path d="M388.723 142.014C390.556 141.835 389.352 143.936 389.159 145.001C388.908 146.386 388.874 147.646 390.447 148.043C391.027 148.189 391.607 148.073 392.174 147.939" stroke="white" stroke-width="2.56" stroke-linecap="round"/>
<path d="M374.689 172.583C374.1 170.839 376.419 171.536 377.499 171.483C378.905 171.413 380.141 171.161 380.171 169.539C380.182 168.941 379.937 168.402 379.679 167.88" stroke="white" stroke-width="2.56" stroke-linecap="round"/>
<mask id="path-28-inside-1_214_1868" fill="white">
<path fill-rule="evenodd" clip-rule="evenodd" d="M212.481 245.24C220.522 245.24 227.041 238.721 227.041 230.68C227.041 222.639 220.522 216.12 212.481 216.12C204.44 216.12 197.921 222.639 197.921 230.68C197.921 238.721 204.44 245.24 212.481 245.24ZM212.741 234.32C214.895 234.32 216.641 232.574 216.641 230.42C216.641 228.266 214.895 226.52 212.741 226.52C210.587 226.52 208.841 228.266 208.841 230.42C208.841 232.574 210.587 234.32 212.741 234.32Z"/>
</mask>
<path fill-rule="evenodd" clip-rule="evenodd" d="M212.481 245.24C220.522 245.24 227.041 238.721 227.041 230.68C227.041 222.639 220.522 216.12 212.481 216.12C204.44 216.12 197.921 222.639 197.921 230.68C197.921 238.721 204.44 245.24 212.481 245.24ZM212.741 234.32C214.895 234.32 216.641 232.574 216.641 230.42C216.641 228.266 214.895 226.52 212.741 226.52C210.587 226.52 208.841 228.266 208.841 230.42C208.841 232.574 210.587 234.32 212.741 234.32Z" fill="#007AFF"/>
<path d="M224.961 230.68C224.961 237.572 219.373 243.16 212.481 243.16V247.32C221.671 247.32 229.121 239.87 229.121 230.68H224.961ZM212.481 218.2C219.373 218.2 224.961 223.787 224.961 230.68H229.121C229.121 221.49 221.671 214.04 212.481 214.04V218.2ZM200.001 230.68C200.001 223.787 205.588 218.2 212.481 218.2V214.04C203.291 214.04 195.841 221.49 195.841 230.68H200.001ZM212.481 243.16C205.588 243.16 200.001 237.572 200.001 230.68H195.841C195.841 239.87 203.291 247.32 212.481 247.32V243.16ZM214.561 230.42C214.561 231.425 213.746 232.24 212.741 232.24V236.4C216.043 236.4 218.721 233.723 218.721 230.42H214.561ZM212.741 228.6C213.746 228.6 214.561 229.415 214.561 230.42H218.721C218.721 227.117 216.043 224.44 212.741 224.44V228.6ZM210.921 230.42C210.921 229.415 211.736 228.6 212.741 228.6V224.44C209.438 224.44 206.761 227.117 206.761 230.42H210.921ZM212.741 232.24C211.736 232.24 210.921 231.425 210.921 230.42H206.761C206.761 233.723 209.438 236.4 212.741 236.4V232.24Z" fill="black" mask="url(#path-28-inside-1_214_1868)"/>
<path d="M222.378 246.153L221.084 242.12C218.146 243.499 216.63 243.926 214.04 244.381L215.334 248.413C215.773 249.781 217.237 250.533 218.605 250.094L220.697 249.423C222.064 248.984 222.817 247.52 222.378 246.153Z" fill="#32ADE6" stroke="black" stroke-width="2.08"/>
<path d="M203.915 215.137L205.209 219.17C207.89 217.965 209.423 217.429 212.253 216.908L210.958 212.876C210.519 211.508 209.055 210.756 207.688 211.195L205.595 211.867C204.228 212.306 203.476 213.77 203.915 215.137Z" fill="#32ADE6" stroke="black" stroke-width="2.08"/>
<path d="M194.741 230.14L198.881 231.035C199.109 227.735 199.425 226.114 200.444 223.804L196.305 222.909C194.901 222.606 193.517 223.498 193.214 224.901L192.75 227.049C192.446 228.453 193.338 229.837 194.741 230.14Z" fill="#32ADE6" stroke="black" stroke-width="2.08"/>
<path d="M203.587 246.067L206.432 242.929C204.088 241.437 202.875 240.384 200.952 237.96L198.107 241.097C197.143 242.161 197.223 243.805 198.287 244.77L199.915 246.246C200.979 247.211 202.623 247.13 203.587 246.067Z" fill="#32ADE6" stroke="black" stroke-width="2.08"/>
<path d="M221.561 215.826L218.98 218.46C221.279 220.072 222.492 221.167 224.44 223.66L226.987 220.938C227.979 219.878 227.911 218.21 226.835 217.235L225.164 215.72C224.129 214.782 222.538 214.829 221.561 215.826Z" fill="#32ADE6" stroke="black" stroke-width="2.08"/>
<path d="M230.048 230.078L226.26 229.38C226.117 232.326 225.66 233.766 224.96 236.4L228.561 237.215C229.971 237.534 231.37 236.642 231.676 235.229L232.118 233.185C232.428 231.751 231.491 230.344 230.048 230.078Z" fill="#32ADE6" stroke="black" stroke-width="2.08"/>
<path d="M221.84 230.68C221.84 235.849 217.649 240.04 212.48 240.04C207.311 240.04 203.12 235.849 203.12 230.68C203.12 225.511 207.311 221.32 212.48 221.32C217.649 221.32 221.84 225.511 221.84 230.68Z" stroke="white" stroke-width="2.08"/>
<path d="M358.44 201.979C357.48 200.408 359.895 200.575 360.937 200.284C362.293 199.905 363.442 199.386 363.112 197.798C362.991 197.212 362.633 196.741 362.266 196.289" stroke="white" stroke-width="2.56" stroke-linecap="round"/>
<path d="M261.8 176.8L309.2 281.4" stroke="#32ADE6" stroke-width="4" stroke-linecap="round"/>
<path d="M441.688 186.8C441.109 187.928 440.576 188.778 440.6 190.073C440.622 191.209 441.45 192.151 442.142 192.964" stroke="white" stroke-width="2.56" stroke-linecap="round"/>
<path d="M340.489 195.6C339.909 196.728 339.377 197.578 339.401 198.874C339.423 200.01 340.251 200.951 340.942 201.764" stroke="white" stroke-width="2.56" stroke-linecap="round"/>
<path d="M365.007 223.529C364.111 222.632 363.465 221.864 362.224 221.49C361.137 221.163 359.987 221.663 359.001 222.072" stroke="white" stroke-width="2.56" stroke-linecap="round"/>
<path d="M385.222 244.583C384.818 245.785 384.419 246.705 384.637 247.983C384.829 249.103 385.788 249.909 386.594 250.61" stroke="white" stroke-width="2.56" stroke-linecap="round"/>
<path d="M375.487 190.384C376.046 191.522 376.41 192.457 377.464 193.21C378.388 193.871 379.638 193.768 380.703 193.699" stroke="white" stroke-width="2.56" stroke-linecap="round"/>
<path d="M455.532 205.681C457.896 204.585 460.321 206.925 460.196 209.327C460.126 210.686 459.424 211.928 459.722 213.31C460.043 214.799 460.672 215.501 462.102 215.829" stroke="white" stroke-width="2.56" stroke-linecap="round"/>
<path d="M467.4 250C467.678 252.224 470.213 252.439 471.946 252.439" stroke="white" stroke-width="2.56" stroke-linecap="round"/>
<path d="M425.652 241.265C427.798 240.618 427.585 238.083 427.294 236.374" stroke="white" stroke-width="2.56" stroke-linecap="round"/>
<path d="M410.6 196.8C410.878 199.024 413.412 199.239 415.145 199.239" stroke="white" stroke-width="2.56" stroke-linecap="round"/>
<path d="M425 169.549C426.357 168.305 426.657 170.708 427.144 171.675C427.776 172.932 428.506 173.96 430.002 173.331C430.553 173.1 430.947 172.658 431.32 172.21" stroke="white" stroke-width="2.56" stroke-linecap="round"/>
<path d="M451.548 228.4C451.348 229.1 451.234 229.912 452.004 230.217C452.822 230.541 453.424 230.063 454.234 230.063C454.976 230.063 455.28 230.047 455.65 230.747C455.993 231.394 456.316 232.312 456.316 233.057" stroke="white" stroke-width="2.56" stroke-linecap="round"/>
<path d="M477.4 224C479.459 225.078 480.339 228.008 480.339 230.162" stroke="white" stroke-width="2.56" stroke-linecap="round"/>
<path d="M479 242.8C479.864 243.255 480.716 243.464 481.702 243.464C482.045 243.464 482.458 243.528 482.792 243.442C483.11 243.361 483.55 243.348 483.84 243.221C485.151 242.648 486.117 243.384 486.679 244.506" stroke="white" stroke-width="2.56" stroke-linecap="round"/>
<path d="M407.4 227.6C408.265 228.055 409.117 228.264 410.102 228.264C410.445 228.264 410.858 228.328 411.192 228.243C411.511 228.161 411.95 228.148 412.24 228.021C413.551 227.448 414.518 228.184 415.079 229.306" stroke="white" stroke-width="2.56" stroke-linecap="round"/>
<path d="M344.4 57.1996C349.053 54.1975 350.553 55.3004 351.8 59.5996" stroke="black" stroke-width="4" stroke-linecap="round"/>
<path d="M17 309.2H598.6" stroke="#3A3A3C" stroke-width="6.4" stroke-linecap="round"/>
<path d="M331.8 381.608C346.087 374.216 353.479 373.794 364.753 381.608C378.345 392.377 388.512 391.062 406.925 381.608C423.978 372.07 431.846 375.285 445.762 381.608C460.929 388.382 469.433 387.055 484.6 381.608" stroke="#9125C8" stroke-width="3.2" stroke-linecap="round"/>
<path d="M334.6 395.208C348.326 387.816 355.428 387.394 366.259 395.208C379.317 405.977 389.085 404.662 406.775 395.208C423.158 385.67 430.717 388.885 444.087 395.208C458.659 401.982 466.828 400.655 481.4 395.208" stroke="#9125C8" stroke-width="3.2" stroke-linecap="round"/>
</svg>
