<svg width="144" height="120" viewBox="0 0 144 120" fill="none" xmlns="http://www.w3.org/2000/svg">
<rect width="144" height="120" rx="4" fill="#3F9EE3"/>
<rect width="144" height="120" rx="4" fill="url(#paint0_linear_373_1335)" fill-opacity="0.2"/>
<path d="M25.272 36V27.24H26.448V36H25.272ZM26.208 36V34.944H30.216V36H26.208ZM32.9753 36V27.816L33.5033 28.224H31.0313V27.24H34.1273V36H32.9753ZM39.1544 36.216C38.4984 36.216 37.9424 36.088 37.4864 35.832C37.0304 35.576 36.6824 35.236 36.4424 34.812C36.2104 34.388 36.0944 33.928 36.0944 33.432H37.2224C37.2224 33.976 37.3944 34.408 37.7384 34.728C38.0904 35.048 38.5624 35.208 39.1544 35.208C39.5464 35.208 39.8864 35.136 40.1744 34.992C40.4624 34.848 40.6864 34.644 40.8464 34.38C41.0064 34.108 41.0864 33.792 41.0864 33.432C41.0864 32.888 40.9104 32.448 40.5584 32.112C40.2144 31.776 39.7504 31.608 39.1664 31.608C38.9184 31.608 38.7024 31.64 38.5184 31.704C38.3424 31.76 38.1864 31.832 38.0504 31.92L37.4744 30.888L40.8224 28.44L40.7024 28.224H36.4424V27.24H41.7824V28.836L39.0104 30.852L38.1704 30.888C38.3064 30.84 38.4544 30.8 38.6144 30.768C38.7824 30.736 38.9784 30.72 39.2024 30.72C39.8424 30.72 40.3864 30.84 40.8344 31.08C41.2824 31.32 41.6224 31.64 41.8544 32.04C42.0944 32.44 42.2144 32.876 42.2144 33.348V33.516C42.2144 33.98 42.0944 34.42 41.8544 34.836C41.6224 35.244 41.2784 35.576 40.8224 35.832C40.3744 36.088 39.8184 36.216 39.1544 36.216ZM45.9855 34.728V29.016H46.9695V34.728H45.9855ZM43.7295 32.328V31.416H49.2255V32.328H43.7295ZM51.2876 36V27.24H52.4636V36H51.2876ZM52.2236 36V34.944H56.2316V36H52.2236ZM58.991 36V27.816L59.519 28.224H57.047V27.24H60.143V36H58.991ZM62.158 33.924V32.508L65.794 27.024L66.598 27.66L63.202 32.796L63.31 33.012H68.974V33.924H62.158ZM66.73 36V29.796H67.81V36H66.73ZM72.3293 34.728V29.016H73.3133V34.728H72.3293ZM70.0732 32.328V31.416H75.5693V32.328H70.0732ZM77.6314 36V27.24H78.8074V36H77.6314ZM78.5674 36V34.944H82.5754V36H78.5674ZM85.3347 36V27.816L85.8627 28.224H83.3907V27.24H86.4867V36H85.3347ZM90.9738 34.728V29.016H91.9578V34.728H90.9738ZM88.7178 32.328V31.416H94.2138V32.328H88.7178ZM96.2759 36V27.24H97.4519V36H96.2759ZM97.2119 36V34.944H101.22V36H97.2119ZM102.443 36V34.56C102.443 34.208 102.491 33.908 102.587 33.66C102.691 33.412 102.867 33.188 103.115 32.988C103.363 32.78 103.699 32.58 104.123 32.388L105.767 31.632C106.167 31.448 106.483 31.212 106.715 30.924C106.947 30.628 107.063 30.248 107.063 29.784C107.063 29.224 106.907 28.788 106.595 28.476C106.283 28.164 105.843 28.008 105.275 28.008C104.715 28.008 104.275 28.164 103.955 28.476C103.635 28.788 103.475 29.224 103.475 29.784H102.347C102.347 29.28 102.451 28.816 102.659 28.392C102.875 27.968 103.199 27.632 103.631 27.384C104.063 27.128 104.611 27 105.275 27C105.939 27 106.483 27.128 106.907 27.384C107.339 27.632 107.659 27.96 107.867 28.368C108.083 28.776 108.191 29.22 108.191 29.7V29.868C108.191 30.5 108.007 31.032 107.639 31.464C107.279 31.896 106.791 32.252 106.175 32.532L104.531 33.288C104.163 33.456 103.915 33.624 103.787 33.792C103.659 33.96 103.595 34.184 103.595 34.464V35.568L103.283 35.016H108.299V36H102.443Z" fill="#F2F2F2"/>
<path d="M24.9588 55V46.2727H28.1548C28.7741 46.2727 29.2869 46.375 29.6932 46.5795C30.0994 46.7812 30.4034 47.0554 30.6051 47.402C30.8068 47.7457 30.9077 48.1335 30.9077 48.5653C30.9077 48.929 30.8409 49.2358 30.7074 49.4858C30.5739 49.733 30.3949 49.9318 30.1705 50.0824C29.9489 50.2301 29.7045 50.3381 29.4375 50.4062V50.4915C29.7273 50.5057 30.0099 50.5994 30.2855 50.7727C30.5639 50.9432 30.794 51.1861 30.9759 51.5014C31.1577 51.8168 31.2486 52.2003 31.2486 52.652C31.2486 53.098 31.1435 53.4986 30.9332 53.8537C30.7259 54.206 30.4048 54.4858 29.9702 54.6932C29.5355 54.8977 28.9801 55 28.304 55H24.9588ZM26.2756 53.8707H28.1761C28.8068 53.8707 29.2585 53.7486 29.5312 53.5043C29.804 53.2599 29.9403 52.9545 29.9403 52.5881C29.9403 52.3125 29.8707 52.0597 29.7315 51.8295C29.5923 51.5994 29.3935 51.4162 29.1349 51.2798C28.8793 51.1435 28.5753 51.0753 28.223 51.0753H26.2756V53.8707ZM26.2756 50.0483H28.0398C28.3352 50.0483 28.6009 49.9915 28.8366 49.8778C29.0753 49.7642 29.2642 49.6051 29.4034 49.4006C29.5455 49.1932 29.6165 48.9489 29.6165 48.6676C29.6165 48.3068 29.4901 48.0043 29.2372 47.7599C28.9844 47.5156 28.5966 47.3935 28.0739 47.3935H26.2756V50.0483ZM32.8104 55V46.2727H38.282V47.4062H34.1271V50.0653H37.9964V51.1946H34.1271V53.8665H38.3331V55H32.8104ZM40.0408 55V46.2727H45.5124V47.4062H41.3576V50.0653H45.2269V51.1946H41.3576V53.8665H45.5636V55H40.0408ZM47.2713 55V46.2727H52.7429V47.4062H48.5881V50.0653H52.4574V51.1946H48.5881V53.8665H52.794V55H47.2713ZM57.6935 46.2727V55H56.3725V47.5938H56.3214L54.2333 48.9574V47.696L56.4109 46.2727H57.6935ZM63.0927 55.1449C62.4194 55.142 61.8441 54.9645 61.3668 54.6122C60.8896 54.2599 60.5245 53.7472 60.2717 53.0739C60.0188 52.4006 59.8924 51.5895 59.8924 50.6406C59.8924 49.6946 60.0188 48.8864 60.2717 48.2159C60.5273 47.5455 60.8938 47.0341 61.3711 46.6818C61.8512 46.3295 62.4251 46.1534 63.0927 46.1534C63.7603 46.1534 64.3327 46.331 64.81 46.6861C65.2873 47.0384 65.6523 47.5497 65.9052 48.2202C66.1609 48.8878 66.2887 49.6946 66.2887 50.6406C66.2887 51.5923 66.1623 52.4048 65.9094 53.0781C65.6566 53.7486 65.2915 54.2614 64.8143 54.6165C64.337 54.9688 63.7631 55.1449 63.0927 55.1449ZM63.0927 54.0071C63.6836 54.0071 64.1452 53.7188 64.4776 53.142C64.8129 52.5653 64.9805 51.7315 64.9805 50.6406C64.9805 49.9162 64.9038 49.304 64.7504 48.804C64.5998 48.3011 64.3825 47.9205 64.0984 47.6619C63.8171 47.4006 63.4819 47.2699 63.0927 47.2699C62.5046 47.2699 62.043 47.5597 61.7077 48.1392C61.3725 48.7187 61.2035 49.5526 61.2006 50.6406C61.2006 51.3679 61.2759 51.983 61.4265 52.4858C61.5799 52.9858 61.7972 53.3651 62.0785 53.6236C62.3597 53.8793 62.6978 54.0071 63.0927 54.0071ZM67.8004 55V54.0455L70.7536 50.9858C71.0689 50.6534 71.3288 50.3622 71.5334 50.1122C71.7408 49.8594 71.8956 49.6193 71.9979 49.392C72.1001 49.1648 72.1513 48.9233 72.1513 48.6676C72.1513 48.3778 72.0831 48.1278 71.9467 47.9176C71.8104 47.7045 71.6243 47.5412 71.3885 47.4276C71.1527 47.3111 70.8871 47.2528 70.5916 47.2528C70.2791 47.2528 70.0064 47.3168 69.7734 47.4446C69.5405 47.5724 69.3615 47.7528 69.2365 47.9858C69.1115 48.2187 69.049 48.4915 69.049 48.804H67.7919C67.7919 48.2727 67.9141 47.8082 68.1584 47.4105C68.4027 47.0128 68.7379 46.7045 69.1641 46.4858C69.5902 46.2642 70.0746 46.1534 70.6172 46.1534C71.1655 46.1534 71.6484 46.2628 72.0661 46.4815C72.4865 46.6974 72.8146 46.9929 73.0504 47.3679C73.2862 47.7401 73.4041 48.1605 73.4041 48.6293C73.4041 48.9531 73.343 49.2699 73.2209 49.5795C73.1016 49.8892 72.8928 50.2344 72.5945 50.6151C72.2962 50.9929 71.8814 51.4517 71.3501 51.9915L69.6158 53.8068V53.8707H73.5447V55H67.8004ZM75.2791 55V46.2727H76.5959V53.8665H80.5504V55H75.2791Z" fill="#EDEDED"/>
<path d="M28.4943 76H24.8849V65.8182H28.5241C29.5483 65.8182 30.4299 66.022 31.169 66.4297C31.9081 66.834 32.4766 67.4157 32.8743 68.1747C33.2753 68.9337 33.4759 69.8419 33.4759 70.8991C33.4759 71.9598 33.2753 72.8712 32.8743 73.6335C32.4766 74.3958 31.9048 74.9808 31.1591 75.3885C30.4167 75.7962 29.5284 76 28.4943 76ZM27.0376 74.1555H28.4048C29.0412 74.1555 29.5765 74.0429 30.0107 73.8175C30.4482 73.5888 30.7763 73.2358 30.995 72.7585C31.2171 72.2779 31.3281 71.6581 31.3281 70.8991C31.3281 70.1468 31.2171 69.532 30.995 69.0547C30.7763 68.5774 30.4498 68.2261 30.0156 68.0007C29.5814 67.7753 29.0462 67.6626 28.4098 67.6626H27.0376V74.1555ZM35.0307 76V68.3636H37.084V69.696H37.1635C37.3027 69.2221 37.5364 68.8641 37.8645 68.6222C38.1926 68.3769 38.5705 68.2543 38.998 68.2543C39.1041 68.2543 39.2185 68.2609 39.3411 68.2741C39.4637 68.2874 39.5714 68.3056 39.6642 68.3288V70.2081C39.5648 70.1783 39.4273 70.1518 39.2516 70.1286C39.0759 70.1054 38.9152 70.0938 38.7694 70.0938C38.4578 70.0938 38.1794 70.1617 37.9341 70.2976C37.6922 70.4302 37.4999 70.6158 37.3574 70.8544C37.2182 71.093 37.1486 71.3681 37.1486 71.6797V76H35.0307ZM41.1222 76.1293C40.794 76.1293 40.5123 76.0133 40.277 75.7812C40.045 75.5459 39.929 75.2642 39.929 74.9361C39.929 74.6113 40.045 74.3329 40.277 74.1009C40.5123 73.8688 40.794 73.7528 41.1222 73.7528C41.4403 73.7528 41.7188 73.8688 41.9574 74.1009C42.196 74.3329 42.3153 74.6113 42.3153 74.9361C42.3153 75.1548 42.259 75.3554 42.1463 75.5376C42.0369 75.7166 41.8928 75.8608 41.7138 75.9702C41.5348 76.0762 41.3376 76.1293 41.1222 76.1293ZM46.8556 65.8182H49.5105L52.3145 72.6591H52.4338L55.2377 65.8182H57.8926V76H55.8045V69.3729H55.72L53.085 75.9503H51.6632L49.0282 69.348H48.9437V76H46.8556V65.8182ZM61.804 76.1442C61.3168 76.1442 60.8826 76.0597 60.5014 75.8906C60.1203 75.7183 59.8187 75.4647 59.5966 75.13C59.3778 74.7919 59.2685 74.371 59.2685 73.8672C59.2685 73.4429 59.3464 73.0866 59.5021 72.7983C59.6579 72.5099 59.87 72.2779 60.1385 72.1023C60.407 71.9266 60.7119 71.794 61.0533 71.7045C61.398 71.6151 61.7592 71.5521 62.1371 71.5156C62.5812 71.4692 62.9392 71.4261 63.2109 71.3864C63.4827 71.3433 63.6799 71.2803 63.8026 71.1974C63.9252 71.1146 63.9865 70.992 63.9865 70.8295V70.7997C63.9865 70.4848 63.8871 70.2412 63.6882 70.0689C63.4927 69.8965 63.2143 69.8104 62.853 69.8104C62.4718 69.8104 62.1686 69.8949 61.9432 70.0639C61.7178 70.2296 61.5687 70.4384 61.4957 70.6903L59.5369 70.5312C59.6364 70.0672 59.8319 69.6662 60.1236 69.3281C60.4152 68.9867 60.7914 68.7249 61.2521 68.5426C61.7161 68.357 62.2531 68.2642 62.8629 68.2642C63.2872 68.2642 63.6932 68.3139 64.081 68.4134C64.4721 68.5128 64.8184 68.6669 65.12 68.8757C65.425 69.0845 65.6652 69.353 65.8409 69.6811C66.0166 70.0059 66.1044 70.3954 66.1044 70.8494V76H64.0959V74.9411H64.0362C63.9136 75.1797 63.7495 75.3902 63.544 75.5724C63.3385 75.7514 63.0916 75.8923 62.8033 75.995C62.5149 76.0945 62.1818 76.1442 61.804 76.1442ZM62.4105 74.6825C62.7221 74.6825 62.9972 74.6212 63.2358 74.4986C63.4744 74.3726 63.6617 74.2036 63.7976 73.9915C63.9335 73.7794 64.0014 73.5391 64.0014 73.2706V72.4602C63.9351 72.5033 63.844 72.5431 63.728 72.5795C63.6153 72.6127 63.4877 72.6442 63.3452 72.674C63.2027 72.7005 63.0601 72.7254 62.9176 72.7486C62.7751 72.7685 62.6458 72.7867 62.5298 72.8033C62.2813 72.8397 62.0642 72.8977 61.8786 72.9773C61.6929 73.0568 61.5488 73.1645 61.446 73.3004C61.3433 73.433 61.2919 73.5987 61.2919 73.7976C61.2919 74.0859 61.3963 74.3063 61.6051 74.4588C61.8172 74.608 62.0857 74.6825 62.4105 74.6825ZM69.8654 71.5852V76H67.7475V68.3636H69.766V69.7109H69.8555C70.0245 69.2668 70.3079 68.9155 70.7056 68.657C71.1033 68.3951 71.5856 68.2642 72.1523 68.2642C72.6826 68.2642 73.145 68.3802 73.5394 68.6122C73.9338 68.8442 74.2404 69.1757 74.4592 69.6065C74.6779 70.0341 74.7873 70.5445 74.7873 71.1378V76H72.6694V71.5156C72.6727 71.0483 72.5534 70.6837 72.3114 70.4219C72.0695 70.1567 71.7364 70.0241 71.3121 70.0241C71.0271 70.0241 70.7752 70.0855 70.5565 70.2081C70.341 70.3307 70.172 70.5097 70.0494 70.745C69.93 70.977 69.8687 71.2571 69.8654 71.5852ZM78.6341 76.1442C78.1468 76.1442 77.7127 76.0597 77.3315 75.8906C76.9503 75.7183 76.6487 75.4647 76.4267 75.13C76.2079 74.7919 76.0985 74.371 76.0985 73.8672C76.0985 73.4429 76.1764 73.0866 76.3322 72.7983C76.488 72.5099 76.7001 72.2779 76.9686 72.1023C77.237 71.9266 77.542 71.794 77.8833 71.7045C78.228 71.6151 78.5893 71.5521 78.9672 71.5156C79.4113 71.4692 79.7692 71.4261 80.041 71.3864C80.3128 71.3433 80.51 71.2803 80.6326 71.1974C80.7553 71.1146 80.8166 70.992 80.8166 70.8295V70.7997C80.8166 70.4848 80.7172 70.2412 80.5183 70.0689C80.3227 69.8965 80.0443 69.8104 79.6831 69.8104C79.3019 69.8104 78.9986 69.8949 78.7733 70.0639C78.5479 70.2296 78.3987 70.4384 78.3258 70.6903L76.367 70.5312C76.4664 70.0672 76.662 69.6662 76.9537 69.3281C77.2453 68.9867 77.6215 68.7249 78.0822 68.5426C78.5462 68.357 79.0832 68.2642 79.693 68.2642C80.1172 68.2642 80.5233 68.3139 80.911 68.4134C81.3021 68.5128 81.6485 68.6669 81.9501 68.8757C82.255 69.0845 82.4953 69.353 82.671 69.6811C82.8467 70.0059 82.9345 70.3954 82.9345 70.8494V76H80.926V74.9411H80.8663C80.7437 75.1797 80.5796 75.3902 80.3741 75.5724C80.1686 75.7514 79.9217 75.8923 79.6333 75.995C79.345 76.0945 79.0119 76.1442 78.6341 76.1442ZM79.2406 74.6825C79.5521 74.6825 79.8272 74.6212 80.0659 74.4986C80.3045 74.3726 80.4918 74.2036 80.6277 73.9915C80.7636 73.7794 80.8315 73.5391 80.8315 73.2706V72.4602C80.7652 72.5033 80.6741 72.5431 80.5581 72.5795C80.4454 72.6127 80.3178 72.6442 80.1752 72.674C80.0327 72.7005 79.8902 72.7254 79.7477 72.7486C79.6052 72.7685 79.4759 72.7867 79.3599 72.8033C79.1113 72.8397 78.8942 72.8977 78.7086 72.9773C78.523 73.0568 78.3788 73.1645 78.2761 73.3004C78.1734 73.433 78.122 73.5987 78.122 73.7976C78.122 74.0859 78.2264 74.3063 78.4352 74.4588C78.6473 74.608 78.9158 74.6825 79.2406 74.6825ZM90.9313 70.5412L88.9924 70.6605C88.9592 70.4948 88.888 70.3456 88.7786 70.2131C88.6692 70.0772 88.525 69.9695 88.3461 69.8899C88.1704 69.8071 87.9599 69.7656 87.7147 69.7656C87.3865 69.7656 87.1098 69.8352 86.8844 69.9744C86.659 70.1103 86.5463 70.2926 86.5463 70.5213C86.5463 70.7036 86.6193 70.8577 86.7651 70.9837C86.9109 71.1096 87.1612 71.2107 87.5158 71.2869L88.8979 71.5653C89.6403 71.7178 90.1938 71.9631 90.5584 72.3011C90.923 72.6392 91.1053 73.0833 91.1053 73.6335C91.1053 74.134 90.9578 74.5732 90.6628 74.951C90.3712 75.3288 89.9701 75.6238 89.4597 75.8359C88.9526 76.0447 88.3676 76.1491 87.7047 76.1491C86.6938 76.1491 85.8884 75.9387 85.2885 75.5178C84.6919 75.0935 84.3423 74.5168 84.2395 73.7876L86.3226 73.6783C86.3856 73.9865 86.5381 74.2218 86.78 74.3842C87.022 74.5433 87.3319 74.6229 87.7097 74.6229C88.0809 74.6229 88.3792 74.5516 88.6046 74.4091C88.8333 74.2633 88.9493 74.076 88.9526 73.8473C88.9493 73.6551 88.8681 73.4976 88.709 73.375C88.5499 73.2491 88.3046 73.1529 87.9732 73.0866L86.6507 72.8232C85.905 72.674 85.3498 72.4155 84.9853 72.0476C84.624 71.6797 84.4434 71.2107 84.4434 70.6406C84.4434 70.1501 84.5759 69.7275 84.8411 69.3729C85.1096 69.0182 85.4857 68.7448 85.9696 68.5526C86.4569 68.3603 87.0269 68.2642 87.6799 68.2642C88.6444 68.2642 89.4034 68.468 89.9569 68.8757C90.5137 69.2834 90.8385 69.8385 90.9313 70.5412ZM24.8849 93V82.8182H27.0376V91.2251H31.4027V93H24.8849ZM34.9661 93.1442C34.4789 93.1442 34.0447 93.0597 33.6635 92.8906C33.2824 92.7183 32.9808 92.4647 32.7587 92.13C32.54 91.7919 32.4306 91.371 32.4306 90.8672C32.4306 90.4429 32.5085 90.0866 32.6642 89.7983C32.82 89.5099 33.0321 89.2779 33.3006 89.1023C33.5691 88.9266 33.874 88.794 34.2154 88.7045C34.5601 88.6151 34.9213 88.5521 35.2992 88.5156C35.7433 88.4692 36.1013 88.4261 36.373 88.3864C36.6448 88.3433 36.842 88.2803 36.9647 88.1974C37.0873 88.1146 37.1486 87.992 37.1486 87.8295V87.7997C37.1486 87.4848 37.0492 87.2412 36.8503 87.0689C36.6548 86.8965 36.3764 86.8104 36.0151 86.8104C35.6339 86.8104 35.3307 86.8949 35.1053 87.0639C34.8799 87.2296 34.7308 87.4384 34.6578 87.6903L32.699 87.5312C32.7985 87.0672 32.994 86.6662 33.2857 86.3281C33.5774 85.9867 33.9535 85.7249 34.4142 85.5426C34.8783 85.357 35.4152 85.2642 36.025 85.2642C36.4493 85.2642 36.8553 85.3139 37.2431 85.4134C37.6342 85.5128 37.9805 85.6669 38.2821 85.8757C38.5871 86.0845 38.8274 86.353 39.003 86.6811C39.1787 87.0059 39.2665 87.3954 39.2665 87.8494V93H37.258V91.9411H37.1983C37.0757 92.1797 36.9116 92.3902 36.7061 92.5724C36.5007 92.7514 36.2537 92.8923 35.9654 92.995C35.677 93.0945 35.3439 93.1442 34.9661 93.1442ZM35.5726 91.6825C35.8842 91.6825 36.1593 91.6212 36.3979 91.4986C36.6365 91.3726 36.8238 91.2036 36.9597 90.9915C37.0956 90.7794 37.1635 90.5391 37.1635 90.2706V89.4602C37.0972 89.5033 37.0061 89.5431 36.8901 89.5795C36.7774 89.6127 36.6498 89.6442 36.5073 89.674C36.3648 89.7005 36.2222 89.7254 36.0797 89.7486C35.9372 89.7685 35.8079 89.7867 35.6919 89.8033C35.4434 89.8397 35.2263 89.8977 35.0407 89.9773C34.8551 90.0568 34.7109 90.1645 34.6081 90.3004C34.5054 90.433 34.454 90.5987 34.454 90.7976C34.454 91.0859 34.5584 91.3063 34.7672 91.4588C34.9793 91.608 35.2478 91.6825 35.5726 91.6825ZM45.8066 89.7486V85.3636H47.9245V93H45.8912V91.6129H45.8116C45.6393 92.0604 45.3526 92.42 44.9515 92.6918C44.5538 92.9635 44.0682 93.0994 43.4949 93.0994C42.9844 93.0994 42.5353 92.9834 42.1475 92.7514C41.7598 92.5194 41.4565 92.1896 41.2377 91.7621C41.0223 91.3345 40.9129 90.8224 40.9096 90.2259V85.3636H43.0275V89.848C43.0308 90.2988 43.1518 90.6551 43.3904 90.9169C43.6291 91.1787 43.9489 91.3097 44.35 91.3097C44.6052 91.3097 44.8438 91.2517 45.0659 91.1357C45.2879 91.0163 45.4669 90.8407 45.6028 90.6087C45.742 90.3767 45.81 90.09 45.8066 89.7486ZM52.4325 93.1243C51.8525 93.1243 51.3272 92.9751 50.8565 92.6768C50.3892 92.3752 50.018 91.9328 49.7429 91.3494C49.4711 90.7628 49.3352 90.0436 49.3352 89.1918C49.3352 88.3168 49.4761 87.5893 49.7578 87.0092C50.0395 86.4259 50.4141 85.9901 50.8814 85.7017C51.352 85.41 51.8674 85.2642 52.4276 85.2642C52.8551 85.2642 53.2114 85.3371 53.4964 85.483C53.7848 85.6255 54.0168 85.8045 54.1925 86.0199C54.3714 86.232 54.5073 86.4408 54.6001 86.6463H54.6648V82.8182H56.7777V93H54.6896V91.777H54.6001C54.5007 91.9891 54.3598 92.1996 54.1776 92.4084C53.9986 92.6139 53.7649 92.7846 53.4766 92.9205C53.1915 93.0563 52.8435 93.1243 52.4325 93.1243ZM53.1037 91.4389C53.4451 91.4389 53.7334 91.3461 53.9688 91.1605C54.2074 90.9716 54.3897 90.7081 54.5156 90.37C54.6449 90.032 54.7095 89.6359 54.7095 89.1818C54.7095 88.7277 54.6465 88.3333 54.5206 87.9986C54.3946 87.6638 54.2124 87.4053 53.9737 87.223C53.7351 87.0407 53.4451 86.9496 53.1037 86.9496C52.7557 86.9496 52.4624 87.044 52.2237 87.233C51.9851 87.4219 51.8045 87.6837 51.6818 88.0185C51.5592 88.3532 51.4979 88.741 51.4979 89.1818C51.4979 89.6259 51.5592 90.0187 51.6818 90.3601C51.8078 90.6982 51.9884 90.9633 52.2237 91.1555C52.4624 91.3445 52.7557 91.4389 53.1037 91.4389Z" fill="#EDEDED"/>
<defs>
<linearGradient id="paint0_linear_373_1335" x1="72" y1="0" x2="72" y2="120" gradientUnits="userSpaceOnUse">
<stop/>
<stop offset="1" stop-opacity="0"/>
</linearGradient>
</defs>
</svg>
