<svg width="376" height="376" viewBox="0 0 376 376" fill="none" xmlns="http://www.w3.org/2000/svg">
<circle cx="188" cy="188" r="188" fill="black"/>
<circle cx="188" cy="188" r="188" fill="#425F57"/>
<path d="M105.555 250.823C96.4032 250.823 89.856 248.218 85.9136 243.008C81.9712 237.658 80 229.773 80 219.354C80 208.794 84.4352 179.015 93.3056 130.016L82.112 107.418C98.0224 97.1392 112.525 92 125.619 92C133.926 92 139.066 95.9424 141.037 103.827C155.398 103.405 174.547 99.8144 198.483 93.056C199.609 99.392 200.173 104.742 200.173 109.107C200.173 118.118 196.723 125.229 189.824 130.438C183.066 135.507 175.181 138.042 166.17 138.042C157.158 138.042 148.147 135.859 139.136 131.494C139.136 131.494 138.502 134.944 137.235 141.843C136.25 147.335 134.63 155.712 132.378 166.976C137.165 168.103 141.67 168.666 145.894 168.666C151.667 167.539 158.003 165.92 164.902 163.808C165.606 166.202 165.958 170.144 165.958 175.635C165.958 180.986 163.776 185.28 159.411 188.519C155.046 191.757 150.118 193.376 144.627 193.376C139.136 193.376 133.574 192.743 127.942 191.475C126.394 200.346 125.619 206.752 125.619 210.695C125.619 224.352 127.731 234.56 131.955 241.319C123.507 247.655 114.707 250.823 105.555 250.823Z" fill="white"/>
<path d="M202.144 280.356C194.869 280.356 189.765 278.537 186.832 274.9C184.016 271.38 182.608 266.217 182.608 259.412C182.608 252.724 184.016 239.172 186.832 218.756C189.765 198.339 192.581 180.915 195.28 166.483L185.424 152.403C192.699 148.179 198.976 145.011 204.256 142.899C209.536 140.67 214.757 139.555 219.92 139.555C228.368 139.555 232.592 145.129 232.592 156.275C232.592 157.801 232.357 160.91 231.888 165.603L233.648 166.483C237.051 158.035 241.979 151.465 248.432 146.771C254.885 141.961 262.453 139.555 271.136 139.555C279.936 139.555 286.917 143.545 292.08 151.523C297.242 159.385 299.824 169.182 299.824 180.915C299.824 196.638 294.309 210.953 283.28 223.86C277.883 230.196 270.667 235.358 261.632 239.348C252.597 243.22 242.507 245.156 231.36 245.156C227.957 245.156 223.499 244.862 217.984 244.276C217.632 248.382 217.456 252.196 217.456 255.716C217.456 263.225 219.275 268.564 222.912 271.732C216.341 277.481 209.419 280.356 202.144 280.356ZM225.2 207.491L221.152 227.908C235.349 227.556 246.672 222.921 255.12 214.003C263.685 204.969 267.968 195.113 267.968 184.435C267.968 178.921 266.853 174.521 264.624 171.235C262.512 167.833 259.403 166.131 255.296 166.131C240.747 166.131 230.715 179.918 225.2 207.491Z" fill="white"/>
</svg>
