<svg width="169" height="157" viewBox="0 0 169 157" fill="none" xmlns="http://www.w3.org/2000/svg">
<rect x="124.396" y="11.7759" width="48.2492" height="17.6446" transform="rotate(43.949 124.396 11.7759)" fill="#636366"/>
<rect x="60.3848" y="5.04785" width="48.2492" height="17.6446" transform="rotate(4.50173 60.3848 5.04785)" fill="#636366"/>
<path d="M44.7027 114.359L27.5839 45.8834C27.3065 44.7738 28.249 43.74 29.3794 43.9139L161.894 64.3007C162.777 64.4366 163.378 65.2692 163.228 66.15L154.73 116.191C154.598 116.971 153.915 117.537 153.124 117.523L46.2257 115.57C45.5025 115.557 44.8781 115.06 44.7027 114.359Z" fill="#FF9F0A"/>
<path d="M155.217 115.204L162.996 67.1568C163.205 65.8645 161.793 64.9127 160.621 65.497C55.6893 117.838 34.858 73.8954 42.7378 115.197C42.8811 115.948 43.551 116.548 44.3156 116.548H153.638C154.423 116.548 155.092 115.978 155.217 115.204Z" fill="#FF9500"/>
<path d="M4 28.0479H21.7457C22.4822 28.0479 23.1236 28.5507 23.2994 29.2659L44.7006 116.33C44.8764 117.045 45.5178 117.548 46.2543 117.548H51M41.5 44.5479L64.1579 48.0479L86 51.4218L107 54.6657L127.5 57.8324L162.9 63.3007C163.78 63.4367 164.38 64.266 164.234 65.145L155.723 116.211C155.594 116.982 154.927 117.548 154.145 117.548H111.5H90H67.5H51M51 117.548L45.679 133.954C45.3438 134.988 46.1143 136.048 47.201 136.048H158" stroke="black" stroke-width="8" stroke-linecap="round" stroke-linejoin="round"/>
<path d="M87 52.0479L65 115.048" stroke="black" stroke-width="8" stroke-linecap="round" stroke-linejoin="round"/>
<path d="M152.5 62.0479L133.5 117.048" stroke="black" stroke-width="8" stroke-linecap="round" stroke-linejoin="round"/>
<path d="M65 49.0479L44 109.548" stroke="black" stroke-width="8" stroke-linecap="round" stroke-linejoin="round"/>
<path d="M130 59.0479L109.5 117.048" stroke="black" stroke-width="8" stroke-linecap="round" stroke-linejoin="round"/>
<path d="M109 55.0479L87 117.048" stroke="black" stroke-width="8" stroke-linecap="round" stroke-linejoin="round"/>
<path d="M30.5 57.0479L161 77.0479" stroke="black" stroke-width="8" stroke-linecap="round" stroke-linejoin="round"/>
<path d="M35.5 74.5479L157.5 93.5479" stroke="black" stroke-width="8" stroke-linecap="round" stroke-linejoin="round"/>
<path d="M39 93.0479L155.5 109.548" stroke="black" stroke-width="8" stroke-linecap="round" stroke-linejoin="round"/>
<circle cx="66.5" cy="144.548" r="7.5" fill="#636366" stroke="black" stroke-width="8"/>
<circle cx="131.5" cy="144.548" r="7.5" fill="#636366" stroke="black" stroke-width="8"/>
<path fill-rule="evenodd" clip-rule="evenodd" d="M64.1783 0.354355C59.2166 0.0567412 54.9532 3.8377 54.6556 8.79934L52.5947 43.1565L60.5385 44.334L62.6412 9.27834C62.6743 8.72704 63.148 8.30693 63.6993 8.34L104.722 10.8006C105.273 10.8337 105.693 11.3074 105.66 11.8587L103.332 50.6774L111.275 51.8549L113.646 12.3377C113.943 7.37609 110.162 3.11261 105.201 2.815L64.1783 0.354355Z" fill="black"/>
<path fill-rule="evenodd" clip-rule="evenodd" d="M129.48 12.3221C125.887 8.88736 120.19 9.01558 116.755 12.6085L83.2128 47.6952L92.9066 49.1321L122.538 18.1366C122.919 17.7374 123.552 17.7232 123.952 18.1048L153.658 46.5031C154.057 46.8848 154.071 47.5178 153.689 47.917L145.128 56.873L154.821 58.3099L159.472 53.4451C162.907 49.8522 162.779 44.1552 159.186 40.7204L129.48 12.3221Z" fill="black"/>
<path d="M142.356 56.9554L111.706 26.7367C111.051 26.0913 109.989 26.1289 109.381 26.819L90.3867 48.4038C89.5608 49.3423 90.0821 50.823 91.3137 51.0372L140.959 59.6711C142.504 59.9398 143.473 58.0564 142.356 56.9554Z" fill="#34C759" stroke="black" stroke-width="8" stroke-linecap="round" stroke-linejoin="round"/>
<path d="M106 24.5479L60.6039 22.5138C59.719 22.4741 58.9703 23.1609 58.9336 24.0458L58.0607 45.0884C58.0264 45.9149 58.6278 46.6313 59.4478 46.7406L87.0303 50.4184C87.6256 50.4978 88.2153 50.237 88.5572 49.7432L106 24.5479Z" fill="#FF3B30" stroke="black" stroke-width="8" stroke-linecap="round" stroke-linejoin="round"/>
</svg>
