<svg width="168" height="163" viewBox="0 0 168 163" fill="none" xmlns="http://www.w3.org/2000/svg">
<path d="M49.5 159C65.7435 159 74.8771 141.389 76.6714 123.874C77.0683 120 79.2639 116.451 82.8321 114.891C94.5685 109.759 103.194 106.245 101.24 97.8808C101.108 97.3175 100.696 96.8656 100.167 96.6316L83.0406 89.0564C79.1759 87.347 78.2421 82.2847 81.2426 79.309L84.075 76.5C69.8969 73.691 66.8294 69.1322 73.6929 55.0687C74.304 53.8166 73.5228 52.3149 72.1314 52.3881C62.8137 52.8787 53.2811 61.6621 45.6086 79.0542C43.9216 82.8783 40.2171 85.4266 36.0588 85.8491C19.8841 87.4927 4 95.0975 4 112C4 131.33 31.2746 159 49.5 159Z" fill="#AF52DE"/>
<path d="M84.075 76.5L135.5 25.5L138 28L81 85.5M84.075 76.5L81.2426 79.309C78.2421 82.2847 79.1759 87.347 83.0406 89.0564L100.167 96.6316C100.696 96.8656 101.108 97.3175 101.24 97.8808C103.194 106.245 94.5685 109.759 82.8321 114.891C79.2639 116.451 77.0683 120 76.6714 123.874C74.8771 141.389 65.7435 159 49.5 159C31.2746 159 4 131.33 4 112C4 95.0975 19.8841 87.4927 36.0588 85.8491C40.2171 85.4266 43.9216 82.8783 45.6086 79.0542C53.2811 61.6621 62.8137 52.8787 72.1314 52.3881C73.5228 52.3149 74.304 53.8166 73.6929 55.0687C66.8294 69.1322 69.8969 73.691 84.075 76.5Z" stroke="black" stroke-width="8"/>
<path d="M82.9621 103.764C84.3288 103.98 85.7777 105.151 84.886 106.209C82.7465 108.748 77.0501 108.957 71.7638 115.573C66.0754 120.055 65.6004 135.315 58.3045 142.713C57.352 143.679 56.0874 144.265 54.753 144.509C44.3658 146.412 38.4225 141.792 36.2638 133.828C28.8409 126.637 22.7724 120.908 18.302 116.702C12.3038 111.058 23.8993 104.769 31.2313 101.018C34.7254 99.2301 38.28 97.2968 41.2633 95.0726C44.6454 90.2942 47.3602 86.4883 49.5996 83.5725C56.7976 74.2002 59.0825 74.0257 62.8244 80.3167C63.1208 80.815 63.3608 81.3506 63.5652 81.8931C68.3484 94.587 77.0486 102.828 82.9621 103.764Z" fill="#BF5AF2"/>
<path d="M165.586 9.31727C164.811 7.43244 163.738 6.5085 161.545 5.69286C161.195 5.56272 160.805 5.57483 160.457 5.70867C143.092 12.3765 131.509 16.5595 128.5 20C125.156 23.0047 125.347 26.288 128.134 33.5593C128.354 34.1337 128.893 34.5287 129.506 34.572C137.049 35.1042 141.256 35.1811 143.5 31.5C147.195 23.9111 151.179 19.4165 164.92 11.1458C165.551 10.7662 165.865 9.99797 165.586 9.31727Z" fill="black" stroke="black" stroke-width="3.2" stroke-linecap="round" stroke-linejoin="round"/>
<rect x="47.7026" y="101.861" width="18.3808" height="8.27501" rx="2" transform="rotate(47 47.7026 101.861)" fill="#FF2D55" stroke="black" stroke-width="4"/>
<rect x="59.5518" y="91" width="18.3808" height="8.27501" rx="2" transform="rotate(47 59.5518 91)" fill="#FF2D55" stroke="black" stroke-width="4"/>
<circle cx="59.5" cy="130" r="3" fill="black"/>
<circle cx="60.5" cy="139" r="3" fill="black"/>
<circle cx="52.5" cy="142" r="3" fill="black"/>
<path d="M27.2946 145C37.9972 141.147 41.0499 136.052 31.3587 128L18.4441 117.868C12.6351 112.091 15.0208 104.374 41.1394 95" stroke="black" stroke-width="3.2" stroke-linecap="round" stroke-linejoin="round"/>
<path d="M132 9.5L136 16.5" stroke="black" stroke-width="6" stroke-linecap="round" stroke-linejoin="round"/>
<path d="M141.5 6L145.5 13" stroke="black" stroke-width="6" stroke-linecap="round" stroke-linejoin="round"/>
<path d="M151.5 3L155.5 10" stroke="black" stroke-width="6" stroke-linecap="round" stroke-linejoin="round"/>
</svg>
