<svg width="61" height="61" viewBox="0 0 61 61" fill="none" xmlns="http://www.w3.org/2000/svg">
<path fill-rule="evenodd" clip-rule="evenodd" d="M17.7584 38.9267C15.6827 36.8073 14.2749 34.1253 13.7096 31.2131C13.1395 28.2928 13.4322 25.2698 14.552 22.5131C15.6621 19.7719 17.5575 17.4199 20 15.7523C24.9556 12.3677 31.4795 12.3677 36.4351 15.7523C38.8778 17.4199 40.7731 19.7719 41.8831 22.5131C43.0029 25.2698 43.2957 28.2928 42.7255 31.2131C42.1603 34.1253 40.7524 36.8073 38.6767 38.9267C35.9279 41.7475 32.1563 43.3384 28.2175 43.3384C24.2788 43.3384 20.5072 41.7475 17.7584 38.9267Z" stroke="black" stroke-width="3.6" stroke-linecap="round" stroke-linejoin="round"/>
<path d="M28.2345 18.501C27.2459 18.6057 26.5295 19.492 26.6342 20.4806C26.7391 21.4692 27.6254 22.1856 28.6139 22.0809L28.2345 18.501ZM32.6779 24.4751C33.0655 25.3906 34.1217 25.8185 35.0373 25.4309C35.9527 25.0434 36.3806 23.9871 35.993 23.0716L32.6779 24.4751ZM40.1671 37.4225C39.4636 36.7203 38.3239 36.7212 37.6216 37.4249C36.9191 38.1283 36.9203 39.2681 37.6238 39.9703L40.1671 37.4225ZM45.755 48.0871C46.4587 48.7896 47.5982 48.7887 48.3007 48.085C49.0029 47.3813 49.0019 46.2418 48.2983 45.5393L45.755 48.0871ZM28.6139 22.0809C30.3479 21.8972 31.9982 22.8693 32.6779 24.4751L35.993 23.0716C34.6953 20.0061 31.5451 18.1502 28.2345 18.501L28.6139 22.0809ZM37.6238 39.9703L45.755 48.0871L48.2983 45.5393L40.1671 37.4225L37.6238 39.9703Z" fill="black"/>
</svg>
