<svg width="180" height="180" viewBox="0 0 180 180" fill="none" xmlns="http://www.w3.org/2000/svg">
<path d="M78.6554 110.388H76.4462C75.2636 110.388 74.5043 109.132 75.054 108.085L83.9835 91.076C84.1019 90.8505 84.1637 90.5997 84.1637 90.345V64.2217C84.1637 63.383 84.8218 62.692 85.6595 62.6511L102.661 61.8218C103.559 61.778 104.31 62.4938 104.31 63.3923V90.2639C104.31 90.5698 104.399 90.869 104.567 91.125L120.407 115.325C121.092 116.371 120.341 117.759 119.091 117.759H116.554C116.26 117.759 115.971 117.676 115.721 117.52L108.452 112.977C108.312 112.889 108.16 112.824 108 112.784L105.134 112.068C104.62 111.939 104.076 112.079 103.686 112.438L98.113 117.583C97.9867 117.699 97.8422 117.794 97.6851 117.864L94.0572 119.476C93.6987 119.636 93.2935 119.655 92.9213 119.531L87.9067 117.86C87.7065 117.793 87.5218 117.687 87.3636 117.547L79.6957 110.781C79.4084 110.528 79.0385 110.388 78.6554 110.388Z" fill="#34C759"/>
<path d="M143.621 75.4514C143.621 82.7787 136.698 90.2413 129.371 90.2413C122.043 90.2413 109.716 77.9135 109.716 70.5862C109.716 63.2589 103.862 60.2672 111.19 60.2672C116 60.2672 129.032 62.7873 136.741 67.6379C140.775 70.1757 143.621 72.9346 143.621 75.4514Z" fill="#63E6E2"/>
<path d="M145.586 55.3535C145.586 64.309 138.326 71.569 129.371 71.569C120.415 71.569 111.681 61.8521 111.681 52.8966C111.681 43.941 120.415 39.1379 129.371 39.1379C138.326 39.1379 145.586 46.3979 145.586 55.3535Z" fill="#63E6E2"/>
<ellipse cx="111.681" cy="26.3621" rx="21.1293" ry="21.6207" fill="#63E6E2"/>
<ellipse cx="74.3363" cy="33.2871" rx="23.0948" ry="23.6319" fill="#63E6E2"/>
<rect x="87.6035" y="39.1379" width="17.6897" height="7.86207" fill="#34C759"/>
<rect x="84.6553" y="49.9482" width="25.5517" height="8.84483" fill="#A2845E"/>
<path d="M58.683 151.238L54.0623 141.156C53.8359 140.662 53.8806 140.087 54.1804 139.633L75.2083 107.858C75.5704 107.311 76.234 107.046 76.8732 107.194L81.7363 108.316C82.0376 108.385 82.3116 108.542 82.5243 108.767L90.5779 117.268C90.8749 117.581 91.2876 117.759 91.7194 117.759H96.4465C96.7675 117.759 97.0809 117.66 97.3444 117.477L107.362 110.508C107.893 110.139 108.595 110.132 109.132 110.491L119.314 117.279C119.763 117.577 120.333 117.626 120.825 117.407L123.319 116.299C123.986 116.002 124.769 116.203 125.21 116.784L142.494 139.526C142.878 140.032 142.92 140.72 142.6 141.269L136.705 151.375C136.423 151.858 135.906 152.155 135.347 152.155H60.1124C59.4976 152.155 58.9392 151.797 58.683 151.238Z" fill="#5856D6"/>
<path d="M106.767 60.2672V90.221C106.767 90.5536 106.873 90.8776 107.068 91.1465L140.118 136.543C144.846 143.039 140.206 152.155 132.172 152.155H63.4207C55.5306 152.155 50.8574 143.326 55.2941 136.801L86.3486 91.133C86.5259 90.8722 86.6208 90.5641 86.6208 90.2488V60.2672M106.767 60.2672H86.6208M106.767 60.2672H109.126C109.994 60.2672 110.698 59.5632 110.698 58.6948V51.0293C110.698 50.1609 109.994 49.4569 109.126 49.4569H106.767M86.6208 60.2672H83.7708C82.9023 60.2672 82.1983 59.5632 82.1983 58.6948V51.0293C82.1983 50.1609 82.9023 49.4569 83.7708 49.4569H86.6208M86.6208 49.4569V41.5948C86.6208 39.9665 87.9407 38.6465 89.569 38.6465H103.819C105.447 38.6465 106.767 39.9665 106.767 41.5948V49.4569M86.6208 49.4569H106.767" stroke="black" stroke-width="7.86207" stroke-linecap="round" stroke-linejoin="round"/>
<path d="M73.5891 111.094C74.2422 109.788 76.3995 108.771 77.6757 108.321C80.8461 107.202 84.104 110.347 85.9875 112.573C87.9659 114.911 89.7829 117.01 92.86 117.894C95.7592 118.727 98.0532 117.944 100.089 115.808C101.971 113.833 103.971 111.278 106.77 110.605C109.416 109.97 111.612 111.375 113.583 112.942C114.891 113.982 116.165 115.075 117.584 115.966C118.783 116.719 120.292 117.585 121.77 117.551C123.12 117.519 124.193 116.679 125.163 115.847" stroke="black" stroke-width="3.93103" stroke-linecap="round"/>
<circle cx="75.3189" cy="130.043" r="4.42241" fill="#AF52DE" stroke="black" stroke-width="1.96552"/>
<circle cx="106.767" cy="130.043" r="4.42241" fill="#AF52DE" stroke="black" stroke-width="1.96552"/>
<circle cx="40.431" cy="53.8792" r="8.84483" fill="#63E6E2" stroke="black" stroke-width="3.93103"/>
<circle cx="146.569" cy="27.3448" r="7.86207" fill="#63E6E2" stroke="black" stroke-width="3.93103"/>
<circle cx="63.0346" cy="78.4482" r="12.7759" fill="#63E6E2" stroke="black" stroke-width="3.93103"/>
<path d="M80.2329 57.8103H74.8278C61.2587 57.8103 50.2588 46.8104 50.2588 33.2413C50.2588 19.6723 61.2587 8.67236 74.8278 8.67236C88.3968 8.67236 99.3967 19.6723 99.3967 33.2413V36.681" stroke="black" stroke-width="3.93103"/>
<path d="M117.816 81.1447C117.447 80.1236 116.321 79.5946 115.3 79.9631C114.279 80.3317 113.75 81.4581 114.118 82.4792L117.816 81.1447ZM138.057 68.2878C139.359 69.5892 140.351 71.1663 140.961 72.9028L144.67 71.5999C143.865 69.3078 142.555 67.2259 140.837 65.5081L138.057 68.2878ZM140.961 72.9028C141.571 74.6392 141.783 76.4904 141.581 78.3198L145.489 78.7504C145.755 76.3356 145.475 73.8919 144.67 71.5999L140.961 72.9028ZM141.581 78.3198C141.38 80.1492 140.77 81.9099 139.796 83.4718L143.132 85.551C144.417 83.4893 145.223 81.1652 145.489 78.7504L141.581 78.3198ZM139.796 83.4718C138.823 85.0337 137.511 86.357 135.957 87.3437L138.065 90.662C140.116 89.3594 141.847 87.6128 143.132 85.551L139.796 83.4718ZM135.957 87.3437C134.404 88.3305 132.648 88.9556 130.821 89.1728L131.285 93.0764C133.697 92.7896 136.014 91.9645 138.065 90.662L135.957 87.3437ZM130.821 89.1728C128.993 89.3901 127.14 89.1939 125.399 88.5988L124.127 92.3186C126.426 93.1042 128.872 93.3631 131.285 93.0764L130.821 89.1728ZM125.399 88.5988C123.657 88.0037 122.071 87.0248 120.759 85.7346L118.003 88.538C119.736 90.241 121.829 91.5331 124.127 92.3186L125.399 88.5988ZM120.759 85.7346C119.446 84.4444 118.441 82.8758 117.816 81.1447L114.118 82.4792C114.943 84.7643 116.271 86.8349 118.003 88.538L120.759 85.7346Z" fill="black"/>
<path d="M120.925 40.045C122.951 38.7964 125.22 37.9949 127.58 37.6942C129.94 37.3934 132.338 37.6003 134.612 38.301C136.886 39.0017 138.984 40.1801 140.765 41.7572C142.547 43.3344 143.971 45.2739 144.943 47.446C145.914 49.6181 146.411 51.9726 146.399 54.352C146.386 56.7314 145.866 59.0808 144.873 61.2429C143.879 63.405 142.435 65.33 140.638 66.8889C138.84 68.4478 136.73 69.6048 134.449 70.2823" stroke="black" stroke-width="3.93103" stroke-linecap="round" stroke-linejoin="round"/>
<path d="M92.6077 14.3138C92.1191 15.2832 92.5088 16.4651 93.4782 16.9537C94.4475 17.4423 95.6294 17.0526 96.118 16.0832L92.6077 14.3138ZM96.118 16.0832C97.2819 13.7741 98.9257 11.7403 100.939 10.1179L98.4728 7.05688C96.0233 9.0306 94.0237 11.5048 92.6077 14.3138L96.118 16.0832ZM100.939 10.1179C102.953 8.49543 105.29 7.32181 107.793 6.67556L106.811 2.86927C103.765 3.65544 100.922 5.08316 98.4728 7.05688L100.939 10.1179ZM107.793 6.67556C110.297 6.02932 112.91 5.92536 115.457 6.37064L116.134 2.49833C113.036 1.95664 109.857 2.08311 106.811 2.86927L107.793 6.67556ZM115.457 6.37064C118.005 6.81593 120.427 7.80018 122.563 9.25753L124.779 6.01026C122.18 4.23738 119.233 3.04003 116.134 2.49833L115.457 6.37064ZM122.563 9.25753C124.7 10.7149 126.5 12.6117 127.843 14.821L131.202 12.7783C129.567 10.0906 127.377 7.78314 124.779 6.01026L122.563 9.25753ZM127.843 14.821C129.187 17.0303 130.043 19.5012 130.355 22.0682L134.257 21.5946C133.878 18.4718 132.837 15.466 131.202 12.7783L127.843 14.821ZM130.355 22.0682C130.666 24.6353 130.426 27.2392 129.65 29.7058L133.4 30.8858C134.344 27.8852 134.636 24.7175 134.257 21.5946L130.355 22.0682ZM129.65 29.7058C128.874 32.1724 127.579 34.4447 125.854 36.3707L128.782 38.9938C130.881 36.6508 132.455 33.8865 133.4 30.8858L129.65 29.7058Z" fill="black"/>
<circle cx="91.043" cy="139.871" r="4.42241" fill="#AF52DE" stroke="black" stroke-width="1.96552"/>
<circle cx="122.492" cy="139.871" r="4.42241" fill="#AF52DE" stroke="black" stroke-width="1.96552"/>
</svg>
