<svg width="221" height="188" viewBox="0 0 221 188" fill="none" xmlns="http://www.w3.org/2000/svg">
<path fill-rule="evenodd" clip-rule="evenodd" d="M155.5 26.5L36 145.5H155.5V26.5ZM129.628 90L99 120.5H129.628V90Z" fill="#AEAEB2"/>
<path d="M53 144.5V140" stroke="black" stroke-width="4" stroke-linecap="round" stroke-linejoin="round"/>
<path d="M67 144.5V140" stroke="black" stroke-width="4" stroke-linecap="round" stroke-linejoin="round"/>
<path d="M60 144.5V138" stroke="black" stroke-width="4" stroke-linecap="round" stroke-linejoin="round"/>
<path d="M74 144.5V138" stroke="black" stroke-width="4" stroke-linecap="round" stroke-linejoin="round"/>
<path d="M88 144.5V138" stroke="black" stroke-width="4" stroke-linecap="round" stroke-linejoin="round"/>
<path d="M81 144.5V140" stroke="black" stroke-width="4" stroke-linecap="round" stroke-linejoin="round"/>
<path d="M95 144.5V140" stroke="black" stroke-width="4" stroke-linecap="round" stroke-linejoin="round"/>
<path d="M109 144.5V140" stroke="black" stroke-width="4" stroke-linecap="round" stroke-linejoin="round"/>
<path d="M102 144.5V138" stroke="black" stroke-width="4" stroke-linecap="round" stroke-linejoin="round"/>
<path d="M116 144.5V138" stroke="black" stroke-width="4" stroke-linecap="round" stroke-linejoin="round"/>
<path d="M130 144.5V138" stroke="black" stroke-width="4" stroke-linecap="round" stroke-linejoin="round"/>
<path d="M123 144.5V140" stroke="black" stroke-width="4" stroke-linecap="round" stroke-linejoin="round"/>
<path d="M137 144.5V140" stroke="black" stroke-width="4" stroke-linecap="round" stroke-linejoin="round"/>
<path d="M144 144.5V138" stroke="black" stroke-width="4" stroke-linecap="round" stroke-linejoin="round"/>
<path d="M155.5 45V26.5L36 145.5H155.5V128" stroke="black" stroke-width="8" stroke-linecap="round" stroke-linejoin="round"/>
<path d="M96 121.152L131.3 86V121.152H96Z" stroke="black" stroke-width="8" stroke-linecap="round" stroke-linejoin="round"/>
<rect x="150" y="45" width="55" height="81" rx="5" fill="#3A3A3C" stroke="black" stroke-width="8"/>
<rect x="159" y="57" width="37" height="14" rx="5" fill="#34C759" stroke="black" stroke-width="4"/>
<rect x="160" y="78" width="7" height="7" rx="1" fill="#FF2D55" stroke="black" stroke-width="3"/>
<rect x="188" y="78" width="7" height="7" rx="1" fill="#FF2D55" stroke="black" stroke-width="3"/>
<rect x="174" y="78" width="7" height="7" rx="1" fill="#FF2D55" stroke="black" stroke-width="3"/>
<rect x="160" y="104" width="7" height="7" rx="1" fill="#FF2D55" stroke="black" stroke-width="3"/>
<rect x="188" y="104" width="7" height="7" rx="1" fill="#FF2D55" stroke="black" stroke-width="3"/>
<rect x="174" y="104" width="7" height="7" rx="1" fill="#FF2D55" stroke="black" stroke-width="3"/>
<rect x="160" y="91" width="7" height="7" rx="1" fill="#FF2D55" stroke="black" stroke-width="3"/>
<rect x="188" y="91" width="7" height="7" rx="1" fill="#FF2D55" stroke="black" stroke-width="3"/>
<rect x="174" y="91" width="7" height="7" rx="1" fill="#FF2D55" stroke="black" stroke-width="3"/>
<path d="M93.4918 52.7338C95.4444 50.7812 98.6103 50.7812 100.563 52.7338L101.425 53.596C103.378 55.5487 103.378 58.7145 101.425 60.6671L53.5479 108.544C51.5952 110.497 48.4294 110.497 46.4768 108.544L45.6145 107.682C43.6619 105.729 43.6619 102.564 45.6145 100.611L93.4918 52.7338Z" fill="#FF2D55" stroke="black" stroke-width="8"/>
<path d="M100.829 45.1189C101.447 44.5009 102.449 44.5009 103.067 45.1189L108.763 50.8144C109.381 51.4324 109.381 52.4343 108.763 53.0522V53.0522C108.145 53.6701 107.143 53.6701 106.525 53.0522L100.829 47.3566C100.211 46.7387 100.211 45.7368 100.829 45.1189V45.1189Z" stroke="black" stroke-width="8"/>
<circle cx="112.5" cy="40.5" r="7.5" fill="#FFCC00" stroke="black" stroke-width="8"/>
<path d="M43.5 105L49 112L39 116L43.5 105Z" fill="#1C1C1E" stroke="black" stroke-width="4" stroke-linecap="round" stroke-linejoin="round"/>
</svg>
