<svg width="154" height="171" viewBox="0 0 154 171" fill="none" xmlns="http://www.w3.org/2000/svg">
<path d="M141.672 56.5492C145.189 65.042 147 74.1445 147 83.337H77L7 83.337C7 74.1445 8.8106 65.042 12.3284 56.5492C15.8463 48.0564 21.0024 40.3397 27.5025 33.8396C34.0026 27.3395 41.7194 22.1833 50.2122 18.6655L51.9999 7.5H99.9999L103.788 18.6655C112.281 22.1833 119.997 27.3395 126.497 33.8396C132.998 40.3397 138.154 48.0564 141.672 56.5492Z" fill="#FFCC00"/>
<path d="M103.788 18.6653C112.281 22.1831 119.997 27.3393 126.497 33.8394C132.998 40.3395 138.154 48.0562 141.672 56.549C145.189 65.0418 147 74.1443 147 83.3369H77L7 83.3369C7 74.1443 8.8106 65.0418 12.3284 56.549C15.8463 48.0562 21.0024 40.3395 27.5025 33.8394C34.0026 27.3393 41.7194 22.1831 50.2122 18.6653" stroke="black" stroke-width="8"/>
<path d="M4.77736 89.3313C5.42499 86.7521 6.74436 83.9998 9.13293 80.3372H144.876C147.217 83.9201 148.472 86.6672 149.089 89.2544C149.6 91.3947 149.717 93.6068 149.477 96.3372H4.42184C4.12218 93.6258 4.24645 91.4456 4.77736 89.3313Z" fill="#2C2C2E" stroke="black" stroke-width="8" stroke-linejoin="round"/>
<path d="M138 92.3369C138 108.515 131.573 124.031 120.134 135.47C108.694 146.91 93.1782 153.337 77 153.337C60.8218 153.337 45.3062 146.91 33.8665 135.47C22.4268 124.031 16 108.515 16 92.3369H42.9999C55.7646 118.278 61.3112 120.68 77 122.5C93.5231 119.833 101.118 116.411 110 92.3369H138Z" fill="#636366"/>
<mask id="path-5-inside-1_121_2109" fill="white">
<path d="M138 92.3372C138 108.515 131.573 124.031 120.134 135.471C108.694 146.91 93.1782 153.337 77 153.337C60.8218 153.337 45.3062 146.91 33.8665 135.471C22.4268 124.031 16 108.515 16 92.3372L77 92.3372H138Z"/>
</mask>
<path d="M138 92.3372C138 108.515 131.573 124.031 120.134 135.471C108.694 146.91 93.1782 153.337 77 153.337C60.8218 153.337 45.3062 146.91 33.8665 135.471C22.4268 124.031 16 108.515 16 92.3372L77 92.3372H138Z" stroke="black" stroke-width="16" mask="url(#path-5-inside-1_121_2109)"/>
<mask id="path-6-inside-2_121_2109" fill="white">
<path d="M110.1 93.8869C110.1 102.785 106.565 111.318 100.273 117.61C93.9816 123.902 85.448 127.437 76.55 127.437C67.652 127.437 59.1184 123.902 52.8266 117.61C46.5347 111.319 43 102.785 43 93.8869L76.55 93.8869H110.1Z"/>
</mask>
<path d="M110.1 93.8869C110.1 102.785 106.565 111.318 100.273 117.61C93.9816 123.902 85.448 127.437 76.55 127.437C67.652 127.437 59.1184 123.902 52.8266 117.61C46.5347 111.319 43 102.785 43 93.8869L76.55 93.8869H110.1Z" stroke="black" stroke-width="16" mask="url(#path-6-inside-2_121_2109)"/>
<path d="M88.7725 136.631C78.2908 139.482 67.1176 138.251 57.5084 133.185C47.8993 128.119 40.5699 119.596 37 109.337" stroke="black" stroke-width="4" stroke-linecap="round"/>
<path d="M35.0554 45.2461C29.2041 51.6588 25.4713 59.6549 24.2697 68.152L82.394 68.152" stroke="black" stroke-width="4" stroke-linecap="round" stroke-linejoin="round"/>
<mask id="path-9-inside-3_121_2109" fill="white">
<rect x="65" y="146.337" width="25" height="24" rx="5"/>
</mask>
<rect x="65" y="146.337" width="25" height="24" rx="5" fill="#AEAEB2" stroke="black" stroke-width="16" mask="url(#path-9-inside-3_121_2109)"/>
<mask id="path-10-inside-4_121_2109" fill="white">
<rect x="33.7661" y="129.337" width="25" height="24" rx="5" transform="rotate(35 33.7661 129.337)"/>
</mask>
<rect x="33.7661" y="129.337" width="25" height="24" rx="5" transform="rotate(35 33.7661 129.337)" fill="#AEAEB2" stroke="black" stroke-width="16" mask="url(#path-10-inside-4_121_2109)"/>
<mask id="path-11-inside-5_121_2109" fill="white">
<rect x="101" y="143.676" width="25" height="24" rx="5" transform="rotate(-35 101 143.676)"/>
</mask>
<rect x="101" y="143.676" width="25" height="24" rx="5" transform="rotate(-35 101 143.676)" fill="#AEAEB2" stroke="black" stroke-width="16" mask="url(#path-11-inside-5_121_2109)"/>
<mask id="path-12-inside-6_121_2109" fill="white">
<rect x="23.1821" y="100.337" width="25" height="24" rx="5" transform="rotate(75 23.1821 100.337)"/>
</mask>
<rect x="23.1821" y="100.337" width="25" height="24" rx="5" transform="rotate(75 23.1821 100.337)" fill="#AEAEB2" stroke="black" stroke-width="16" mask="url(#path-12-inside-6_121_2109)"/>
<mask id="path-13-inside-7_121_2109" fill="white">
<rect x="124" y="124.485" width="25" height="24" rx="5" transform="rotate(-75 124 124.485)"/>
</mask>
<rect x="124" y="124.485" width="25" height="24" rx="5" transform="rotate(-75 124 124.485)" fill="#AEAEB2" stroke="black" stroke-width="16" mask="url(#path-13-inside-7_121_2109)"/>
<path d="M47.5 44.3371L54 8.33709C71.8247 2.53883 81.8971 2.56979 100 8.33709L106.5 44.3371" stroke="black" stroke-width="8" stroke-linecap="round" stroke-linejoin="round"/>
<path d="M67.5 37.8369L70 6.33692C74.9168 6.07439 77.7534 6.06107 83 6.33692L86 37.8369H67.5Z" fill="#FF9500" stroke="black" stroke-width="8" stroke-linecap="round" stroke-linejoin="round"/>
</svg>
